<svg width="402" height="120" viewBox="0 0 402 120" fill="none" xmlns="http://www.w3.org/2000/svg">
<path d="M206.064 29.9146C213.504 25.3472 221.888 22.4976 230.292 21.6923C237.457 20.9908 244.901 21.7681 251.99 23.9141L252.234 21.067C244.863 18.9388 237.36 18.1984 230.028 18.8996C221.2 19.7525 212.413 22.7355 204.604 27.5231C196.796 32.3108 190.169 38.8085 185.415 46.3061C184.074 48.4157 182.894 50.5951 181.864 52.8293C169.68 56.4448 158.84 63.1553 148.9 69.9709C146.478 71.6243 144.037 73.346 141.685 75.0053C133.07 81.0529 124.171 87.3002 114.613 91.938C103.83 97.1704 91.7488 100.403 79.6733 101.286C67.2598 102.195 55.2176 100.73 43.8797 96.9193C39.2312 95.346 34.7145 93.3783 30.4369 91.0673L30.1788 94.0812C34.3306 96.2275 38.5792 98.0603 42.9976 99.5439C49.9032 101.87 57.077 103.352 64.4078 103.98C69.4893 104.415 74.6621 104.438 79.8833 104.06C92.2967 103.15 104.735 99.8222 115.84 94.4354C125.588 89.7019 134.59 83.3936 143.281 77.2825C145.633 75.6231 148.072 73.9154 150.479 72.2747C159.631 66.0072 169.515 59.8444 180.456 56.2064C177.151 64.9053 176.269 74.0635 178.068 82.4579C179.395 88.6854 182.306 94.5449 186.477 99.407C190.8 104.45 196.197 108.06 202.101 109.839C208.139 111.671 214.86 111.421 221.038 109.18C227.376 106.869 232.509 102.621 235.516 97.2267C238.837 91.2714 239.59 83.9489 237.63 76.6179C235.776 69.6877 231.573 63.2419 226.083 58.9244C220.762 54.7473 214.295 52.0389 206.897 50.8878C200.204 49.8389 192.946 50.1548 185.911 51.7908C185.753 51.8333 185.597 51.8619 185.44 51.9043C186.145 50.5238 186.933 49.1642 187.774 47.8371C192.304 40.6702 198.624 34.4819 206.064 29.9146ZM186.533 54.4883C193.225 52.9348 200.117 52.6436 206.466 53.635C213.394 54.7179 219.416 57.2343 224.357 61.113C229.376 65.0544 233.233 70.9669 234.927 77.3237C236.695 83.9527 236.033 90.5415 233.074 95.8564C227.619 105.658 214.355 110.622 202.889 107.164C197.504 105.542 192.557 102.222 188.577 97.5862C184.711 93.072 182.015 87.6506 180.775 81.8783C178.944 73.3692 180.085 63.9673 183.873 55.1699C184.763 54.9103 185.648 54.6924 186.533 54.4883Z" fill="white"/>
<path d="M278 30.3294L251.44 6.08396L251.054 16.7587L269.648 26.8954L250.911 20.6999L250.911 20.7101L250.91 20.6978L242.712 23.4015L250.695 26.6839L250.42 34.2674L278 30.3294Z" fill="white"/>
</svg>
