<svg width="20" height="15" viewBox="0 0 20 15" fill="none" xmlns="http://www.w3.org/2000/svg">
<g clip-path="url(#clip0_6_581)">
<path d="M19.9999 3.18848L13.2639 7.48464C13.3226 7.5259 13.3652 7.5591 13.4107 7.58708C15.5552 8.90168 17.6999 10.2158 19.8448 11.5295C19.8947 11.5556 19.9463 11.5784 19.9994 11.5977L19.9999 3.18848Z" fill="white"/>
<path d="M9.98458 0.728516C7.09945 0.728516 4.21464 0.728516 1.33016 0.728516C0.722828 0.728516 0.259861 1.0363 0.0807437 1.54801C0.0318045 1.68506 0.0411024 1.77422 0.190367 1.86955C3.08529 3.70898 5.97711 5.5533 8.86583 7.40253C9.20253 7.61784 9.54168 7.82935 9.87446 8.05035C9.96451 8.11011 10.0252 8.10726 10.1152 8.05035C13.3573 5.97633 16.6013 3.90547 19.8473 1.83777C19.9422 1.77754 19.955 1.72348 19.9281 1.62246C19.8634 1.38605 19.7256 1.17452 19.5331 1.01637C19.3405 0.858227 19.1026 0.761071 18.8514 0.737998C18.7608 0.729936 18.6693 0.730889 18.5783 0.730889L9.98458 0.728516Z" fill="white"/>
<path d="M0.0358847 13.0422C0.193469 13.7061 0.642729 14.059 1.31858 14.059C7.10222 14.059 12.8862 14.059 18.6705 14.059C19.2666 14.059 19.7222 13.7526 19.9057 13.2456C19.9571 13.1034 19.9429 13.0194 19.7927 12.9279C18.1545 11.9336 16.5201 10.9334 14.8894 9.92737C14.0203 9.3948 13.1496 8.8646 12.2839 8.32633C12.1591 8.24903 12.0744 8.23623 11.9413 8.32349C11.4426 8.65546 10.9307 8.96988 10.4286 9.29805C10.135 9.4906 9.85456 9.49202 9.55994 9.29805C9.04706 8.96324 8.52733 8.63791 8.01346 8.30499C7.92391 8.24714 7.85833 8.23149 7.75555 8.29456C5.21659 9.85577 2.67599 11.4144 0.133763 12.9706C0.103421 12.9919 0.0735679 13.0156 0.0358847 13.0422Z" fill="white"/>
<path d="M0.000433788 3.19434V11.6216L6.73544 7.49571L0.000433788 3.19434Z" fill="white"/>
</g>
<defs>
<clipPath id="clip0_6_581">
<rect width="20" height="13.3333" fill="white" transform="matrix(-1 0 0 1 20 0.726562)"/>
</clipPath>
</defs>
</svg>
