<svg width="24" height="25" viewBox="0 0 24 25" fill="none" xmlns="http://www.w3.org/2000/svg">
<g clip-path="url(#clip0_6_469)">
<path d="M1.70582 12.2643C1.70582 16.3391 4.07368 19.8603 7.5074 21.5291L2.59666 8.07484C2.00815 9.39306 1.70459 10.8207 1.70582 12.2643V12.2643ZM18.9491 11.7447C18.9491 10.4725 18.4921 9.59152 18.1002 8.90575C17.5783 8.05759 17.0893 7.33973 17.0893 6.49175C17.0893 5.54537 17.8069 4.66452 18.8179 4.66452C18.8635 4.66452 18.9067 4.67011 18.9512 4.67272C17.12 2.99479 14.6798 1.97034 11.9999 1.97034C8.40354 1.97034 5.23958 3.81558 3.39892 6.6104C3.64045 6.61763 3.868 6.62264 4.06144 6.62264C5.13809 6.62264 6.80479 6.49214 6.80479 6.49214C7.35975 6.45937 7.42519 7.27438 6.87081 7.3403C6.87081 7.3403 6.31316 7.40584 5.69257 7.43833L9.44174 18.589L11.6945 11.8325L10.0904 7.43784C9.536 7.40536 9.01092 7.33982 9.01092 7.33982C8.45626 7.30724 8.52131 6.45908 9.07598 6.49165C9.07598 6.49165 10.776 6.62225 11.7874 6.62225C12.8641 6.62225 14.5309 6.49165 14.5309 6.49165C15.0862 6.45888 15.1515 7.2739 14.597 7.33982C14.597 7.33982 14.038 7.40536 13.4187 7.43784L17.1389 18.504L18.1657 15.0728C18.6106 13.6489 18.9494 12.6263 18.9494 11.7449L18.9491 11.7447ZM12.1805 13.1647L9.09188 22.1399C11.1656 22.7506 13.3789 22.6933 15.4182 21.976C15.3897 21.931 15.3652 21.8835 15.345 21.8342L12.1805 13.165V13.1647ZM21.0325 7.32536C21.0793 7.67627 21.1025 8.02992 21.1019 8.38394C21.1019 9.42853 20.9067 10.6029 20.3191 12.0712L17.1747 21.1627C20.235 19.3779 22.2935 16.0623 22.2935 12.2645C22.2935 10.4748 21.8365 8.79173 21.0324 7.32536H21.0325ZM11.9999 0.264648C5.38329 0.264648 9.15527e-05 5.64763 9.15527e-05 12.2643C9.15527e-05 18.881 5.38329 24.2646 11.9999 24.2646C18.6164 24.2646 24.0001 18.8818 24.0001 12.2643C24.0001 5.64686 18.6162 0.264648 11.9999 0.264648H11.9999ZM11.9999 23.7146C5.68698 23.7146 0.549936 18.578 0.549936 12.2643C0.549936 5.95066 5.68621 0.814898 11.9999 0.814898C18.3135 0.814898 23.4488 5.95114 23.4488 12.2643C23.4488 18.5775 18.3127 23.7146 11.9999 23.7146Z" fill="white"/>
</g>
<defs>
<clipPath id="clip0_6_469">
<rect width="24" height="24" fill="white" transform="translate(0 0.264648)"/>
</clipPath>
</defs>
</svg>
