<svg width="61" height="56" viewBox="0 0 61 56" fill="none" xmlns="http://www.w3.org/2000/svg">
<path d="M2.09989 55.9986C2.78608 55.9986 3.34235 55.4423 3.34235 54.7561C3.34235 54.0699 2.78608 53.5137 2.09989 53.5137C1.41369 53.5137 0.857422 54.0699 0.857422 54.7561C0.857422 55.4423 1.41369 55.9986 2.09989 55.9986Z" fill="#DE6944"/>
<path d="M2.09989 45.2603C2.78608 45.2603 3.34235 44.704 3.34235 44.0179C3.34235 43.3317 2.78608 42.7754 2.09989 42.7754C1.41369 42.7754 0.857422 43.3317 0.857422 44.0179C0.857422 44.704 1.41369 45.2603 2.09989 45.2603Z" fill="#DE6944"/>
<path d="M2.09989 34.522C2.78608 34.522 3.34235 33.9658 3.34235 33.2796C3.34235 32.5934 2.78608 32.0371 2.09989 32.0371C1.41369 32.0371 0.857422 32.5934 0.857422 33.2796C0.857422 33.9658 1.41369 34.522 2.09989 34.522Z" fill="#DE6944"/>
<path d="M2.09989 23.8716C2.78608 23.8716 3.34235 23.3154 3.34235 22.6292C3.34235 21.943 2.78608 21.3867 2.09989 21.3867C1.41369 21.3867 0.857422 21.943 0.857422 22.6292C0.857422 23.3154 1.41369 23.8716 2.09989 23.8716Z" fill="#DE6944"/>
<path d="M2.09989 13.1353C2.78608 13.1353 3.34235 12.579 3.34235 11.8929C3.34235 11.2067 2.78608 10.6504 2.09989 10.6504C1.41369 10.6504 0.857422 11.2067 0.857422 11.8929C0.857422 12.579 1.41369 13.1353 2.09989 13.1353Z" fill="#DE6944"/>
<path d="M2.10184 2.48493C2.78803 2.48493 3.3443 1.92866 3.3443 1.24246C3.3443 0.55627 2.78803 0 2.10184 0C1.41565 0 0.859375 0.55627 0.859375 1.24246C0.859375 1.92866 1.41565 2.48493 2.10184 2.48493Z" fill="#DE6944"/>
<path d="M59.6096 55.9986C60.2958 55.9986 60.8521 55.4423 60.8521 54.7561C60.8521 54.0699 60.2958 53.5137 59.6096 53.5137C58.9235 53.5137 58.3672 54.0699 58.3672 54.7561C58.3672 55.4423 58.9235 55.9986 59.6096 55.9986Z" fill="#DE6944"/>
<path d="M59.6096 45.2603C60.2958 45.2603 60.8521 44.704 60.8521 44.0179C60.8521 43.3317 60.2958 42.7754 59.6096 42.7754C58.9235 42.7754 58.3672 43.3317 58.3672 44.0179C58.3672 44.704 58.9235 45.2603 59.6096 45.2603Z" fill="#DE6944"/>
<path d="M59.6096 34.522C60.2958 34.522 60.8521 33.9658 60.8521 33.2796C60.8521 32.5934 60.2958 32.0371 59.6096 32.0371C58.9235 32.0371 58.3672 32.5934 58.3672 33.2796C58.3672 33.9658 58.9235 34.522 59.6096 34.522Z" fill="#DE6944"/>
<path d="M59.6096 23.8716C60.2958 23.8716 60.8521 23.3154 60.8521 22.6292C60.8521 21.943 60.2958 21.3867 59.6096 21.3867C58.9235 21.3867 58.3672 21.943 58.3672 22.6292C58.3672 23.3154 58.9235 23.8716 59.6096 23.8716Z" fill="#DE6944"/>
<path d="M59.6096 13.1353C60.2958 13.1353 60.8521 12.579 60.8521 11.8929C60.8521 11.2067 60.2958 10.6504 59.6096 10.6504C58.9235 10.6504 58.3672 11.2067 58.3672 11.8929C58.3672 12.579 58.9235 13.1353 59.6096 13.1353Z" fill="#DE6944"/>
<path d="M59.6096 2.48493C60.2958 2.48493 60.8521 1.92866 60.8521 1.24246C60.8521 0.55627 60.2958 0 59.6096 0C58.9235 0 58.3672 0.55627 58.3672 1.24246C58.3672 1.92866 58.9235 2.48493 59.6096 2.48493Z" fill="#DE6944"/>
<path d="M48.1604 55.9986C48.8466 55.9986 49.4029 55.4423 49.4029 54.7561C49.4029 54.0699 48.8466 53.5137 48.1604 53.5137C47.4742 53.5137 46.918 54.0699 46.918 54.7561C46.918 55.4423 47.4742 55.9986 48.1604 55.9986Z" fill="#DE6944"/>
<path d="M48.1604 45.2603C48.8466 45.2603 49.4029 44.704 49.4029 44.0179C49.4029 43.3317 48.8466 42.7754 48.1604 42.7754C47.4742 42.7754 46.918 43.3317 46.918 44.0179C46.918 44.704 47.4742 45.2603 48.1604 45.2603Z" fill="#DE6944"/>
<path d="M48.1604 34.522C48.8466 34.522 49.4029 33.9658 49.4029 33.2796C49.4029 32.5934 48.8466 32.0371 48.1604 32.0371C47.4742 32.0371 46.918 32.5934 46.918 33.2796C46.918 33.9658 47.4742 34.522 48.1604 34.522Z" fill="#DE6944"/>
<path d="M48.1604 23.8716C48.8466 23.8716 49.4029 23.3154 49.4029 22.6292C49.4029 21.943 48.8466 21.3867 48.1604 21.3867C47.4742 21.3867 46.918 21.943 46.918 22.6292C46.918 23.3154 47.4742 23.8716 48.1604 23.8716Z" fill="#DE6944"/>
<path d="M48.1604 13.1353C48.8466 13.1353 49.4029 12.579 49.4029 11.8929C49.4029 11.2067 48.8466 10.6504 48.1604 10.6504C47.4742 10.6504 46.918 11.2067 46.918 11.8929C46.918 12.579 47.4742 13.1353 48.1604 13.1353Z" fill="#DE6944"/>
<path d="M48.1604 2.48493C48.8466 2.48493 49.4029 1.92866 49.4029 1.24246C49.4029 0.55627 48.8466 0 48.1604 0C47.4742 0 46.918 0.55627 46.918 1.24246C46.918 1.92866 47.4742 2.48493 48.1604 2.48493Z" fill="#DE6944"/>
<path d="M36.6233 55.9986C37.3095 55.9986 37.8658 55.4423 37.8658 54.7561C37.8658 54.0699 37.3095 53.5137 36.6233 53.5137C35.9371 53.5137 35.3809 54.0699 35.3809 54.7561C35.3809 55.4423 35.9371 55.9986 36.6233 55.9986Z" fill="#DE6944"/>
<path d="M36.6233 45.2603C37.3095 45.2603 37.8658 44.704 37.8658 44.0179C37.8658 43.3317 37.3095 42.7754 36.6233 42.7754C35.9371 42.7754 35.3809 43.3317 35.3809 44.0179C35.3809 44.704 35.9371 45.2603 36.6233 45.2603Z" fill="#DE6944"/>
<path d="M36.6233 34.522C37.3095 34.522 37.8658 33.9658 37.8658 33.2796C37.8658 32.5934 37.3095 32.0371 36.6233 32.0371C35.9371 32.0371 35.3809 32.5934 35.3809 33.2796C35.3809 33.9658 35.9371 34.522 36.6233 34.522Z" fill="#DE6944"/>
<path d="M36.6233 23.8716C37.3095 23.8716 37.8658 23.3154 37.8658 22.6292C37.8658 21.943 37.3095 21.3867 36.6233 21.3867C35.9371 21.3867 35.3809 21.943 35.3809 22.6292C35.3809 23.3154 35.9371 23.8716 36.6233 23.8716Z" fill="#DE6944"/>
<path d="M36.6233 13.1353C37.3095 13.1353 37.8658 12.579 37.8658 11.8929C37.8658 11.2067 37.3095 10.6504 36.6233 10.6504C35.9371 10.6504 35.3809 11.2067 35.3809 11.8929C35.3809 12.579 35.9371 13.1353 36.6233 13.1353Z" fill="#DE6944"/>
<path d="M36.6233 2.48493C37.3095 2.48493 37.8658 1.92866 37.8658 1.24246C37.8658 0.55627 37.3095 0 36.6233 0C35.9371 0 35.3809 0.55627 35.3809 1.24246C35.3809 1.92866 35.9371 2.48493 36.6233 2.48493Z" fill="#DE6944"/>
<path d="M25.0862 55.9986C25.7724 55.9986 26.3287 55.4423 26.3287 54.7561C26.3287 54.0699 25.7724 53.5137 25.0862 53.5137C24.4 53.5137 23.8438 54.0699 23.8438 54.7561C23.8438 55.4423 24.4 55.9986 25.0862 55.9986Z" fill="#DE6944"/>
<path d="M25.0862 45.2603C25.7724 45.2603 26.3287 44.704 26.3287 44.0179C26.3287 43.3317 25.7724 42.7754 25.0862 42.7754C24.4 42.7754 23.8438 43.3317 23.8438 44.0179C23.8438 44.704 24.4 45.2603 25.0862 45.2603Z" fill="#DE6944"/>
<path d="M25.0862 34.522C25.7724 34.522 26.3287 33.9658 26.3287 33.2796C26.3287 32.5934 25.7724 32.0371 25.0862 32.0371C24.4 32.0371 23.8438 32.5934 23.8438 33.2796C23.8438 33.9658 24.4 34.522 25.0862 34.522Z" fill="#DE6944"/>
<path d="M25.0862 23.8716C25.7724 23.8716 26.3287 23.3154 26.3287 22.6292C26.3287 21.943 25.7724 21.3867 25.0862 21.3867C24.4 21.3867 23.8438 21.943 23.8438 22.6292C23.8438 23.3154 24.4 23.8716 25.0862 23.8716Z" fill="#DE6944"/>
<path d="M25.0862 13.1353C25.7724 13.1353 26.3287 12.579 26.3287 11.8929C26.3287 11.2067 25.7724 10.6504 25.0862 10.6504C24.4 10.6504 23.8438 11.2067 23.8438 11.8929C23.8438 12.579 24.4 13.1353 25.0862 13.1353Z" fill="#DE6944"/>
<path d="M25.0862 2.48493C25.7724 2.48493 26.3287 1.92866 26.3287 1.24246C26.3287 0.55627 25.7724 0 25.0862 0C24.4 0 23.8438 0.55627 23.8438 1.24246C23.8438 1.92866 24.4 2.48493 25.0862 2.48493Z" fill="#DE6944"/>
<path d="M13.5491 55.9986C14.2353 55.9986 14.7916 55.4423 14.7916 54.7561C14.7916 54.0699 14.2353 53.5137 13.5491 53.5137C12.8629 53.5137 12.3066 54.0699 12.3066 54.7561C12.3066 55.4423 12.8629 55.9986 13.5491 55.9986Z" fill="#DE6944"/>
<path d="M13.5491 45.2603C14.2353 45.2603 14.7916 44.704 14.7916 44.0179C14.7916 43.3317 14.2353 42.7754 13.5491 42.7754C12.8629 42.7754 12.3066 43.3317 12.3066 44.0179C12.3066 44.704 12.8629 45.2603 13.5491 45.2603Z" fill="#DE6944"/>
<path d="M13.5491 34.522C14.2353 34.522 14.7916 33.9658 14.7916 33.2796C14.7916 32.5934 14.2353 32.0371 13.5491 32.0371C12.8629 32.0371 12.3066 32.5934 12.3066 33.2796C12.3066 33.9658 12.8629 34.522 13.5491 34.522Z" fill="#DE6944"/>
<path d="M13.5491 23.8716C14.2353 23.8716 14.7916 23.3154 14.7916 22.6292C14.7916 21.943 14.2353 21.3867 13.5491 21.3867C12.8629 21.3867 12.3066 21.943 12.3066 22.6292C12.3066 23.3154 12.8629 23.8716 13.5491 23.8716Z" fill="#DE6944"/>
<path d="M13.5491 13.1353C14.2353 13.1353 14.7916 12.579 14.7916 11.8929C14.7916 11.2067 14.2353 10.6504 13.5491 10.6504C12.8629 10.6504 12.3066 11.2067 12.3066 11.8929C12.3066 12.579 12.8629 13.1353 13.5491 13.1353Z" fill="#DE6944"/>
<path d="M13.5491 2.48493C14.2353 2.48493 14.7916 1.92866 14.7916 1.24246C14.7916 0.55627 14.2353 0 13.5491 0C12.8629 0 12.3066 0.55627 12.3066 1.24246C12.3066 1.92866 12.8629 2.48493 13.5491 2.48493Z" fill="#DE6944"/>
</svg>
