<svg width="26" height="23" viewBox="0 0 26 23" fill="none" xmlns="http://www.w3.org/2000/svg">
<path d="M25.3135 11.2672C25.3135 9.63064 23.2549 8.07971 20.0989 7.11793C20.8272 3.91537 20.5035 1.36742 19.0772 0.55167C18.7485 0.360322 18.3641 0.269684 17.9443 0.269684V1.3926C18.1769 1.3926 18.3641 1.43791 18.5209 1.52352C19.2087 1.91628 19.5071 3.41182 19.2745 5.33537C19.2188 5.80871 19.1278 6.30722 19.0165 6.8158C18.0252 6.5741 16.9428 6.38779 15.8048 6.26694C15.122 5.33537 14.4139 4.48941 13.7008 3.7492C15.3496 2.22345 16.8973 1.38756 17.9493 1.38756V0.264648C16.5584 0.264648 14.7376 1.2516 12.8966 2.96366C11.0556 1.26167 9.23478 0.28479 7.84389 0.28479V1.4077C8.89085 1.4077 10.4436 2.23856 12.0924 3.75423C11.3843 4.49445 10.6762 5.33537 10.0036 6.26694C8.86051 6.38779 7.77814 6.5741 6.78682 6.82084C6.67049 6.31729 6.5845 5.82885 6.52381 5.36055C6.2861 3.437 6.57945 1.94146 7.26225 1.54366C7.41398 1.45302 7.61123 1.41274 7.84389 1.41274V0.289826C7.41904 0.289826 7.03465 0.380464 6.70083 0.571812C5.2796 1.38756 4.96096 3.93048 5.69434 7.12297C2.5484 8.08978 0.5 9.63567 0.5 11.2672C0.5 12.9037 2.55851 14.4546 5.71457 15.4164C4.98625 18.619 5.30995 21.1669 6.73624 21.9827C7.06499 22.174 7.44939 22.2646 7.87424 22.2646C9.26513 22.2646 11.0859 21.2777 12.927 19.5656C14.768 21.2676 16.5888 22.2445 17.9797 22.2445C18.4045 22.2445 18.7889 22.1539 19.1227 21.9625C20.544 21.1468 20.8626 18.6039 20.1292 15.4114C23.2651 14.4496 25.3135 12.8987 25.3135 11.2672V11.2672ZM18.7282 7.9085C18.5411 8.55808 18.3084 9.2278 18.0454 9.89751C17.8381 9.49468 17.6206 9.09184 17.3829 8.689C17.1502 8.28616 16.9024 7.8934 16.6545 7.5107C17.3727 7.61644 18.0657 7.74737 18.7282 7.9085ZM16.4118 13.2713C16.0173 13.9511 15.6126 14.5956 15.1928 15.1948C14.4392 15.2603 13.6755 15.2955 12.9067 15.2955C12.143 15.2955 11.3793 15.2603 10.6307 15.1999C10.2109 14.6007 9.80125 13.9611 9.40674 13.2864C9.02235 12.6267 8.67337 11.957 8.35473 11.2823C8.66831 10.6075 9.02235 9.93276 9.40169 9.27312C9.79619 8.59333 10.2008 7.94879 10.6206 7.34956C11.3742 7.2841 12.1379 7.24885 12.9067 7.24885C13.6705 7.24885 14.4342 7.2841 15.1827 7.34453C15.6025 7.94375 16.0122 8.58326 16.4067 9.25801C16.7911 9.91766 17.1401 10.5874 17.4587 11.2621C17.1401 11.9369 16.7911 12.6116 16.4118 13.2713ZM18.0454 12.6167C18.3185 13.2914 18.5512 13.9662 18.7434 14.6208C18.0808 14.7819 17.3829 14.9179 16.6596 15.0236C16.9074 14.6359 17.1553 14.2381 17.3879 13.8302C17.6206 13.4274 17.8381 13.0195 18.0454 12.6167ZM12.9168 17.9895C12.4465 17.5061 11.9761 16.9673 11.5108 16.3782C11.966 16.3983 12.4313 16.4134 12.9017 16.4134C13.3771 16.4134 13.8475 16.4034 14.3077 16.3782C13.8525 16.9673 13.3822 17.5061 12.9168 17.9895ZM9.15386 15.0236C8.43565 14.9179 7.74274 14.787 7.08017 14.6258C7.2673 13.9763 7.49996 13.3065 7.76297 12.6368C7.97034 13.0397 8.18782 13.4425 8.42554 13.8453C8.66325 14.2482 8.90602 14.6409 9.15386 15.0236ZM12.8916 4.5448C13.3619 5.02821 13.8323 5.56701 14.2976 6.15616C13.8424 6.13601 13.3771 6.12091 12.9067 6.12091C12.4313 6.12091 11.9609 6.13098 11.5007 6.15616C11.9559 5.56701 12.4262 5.02821 12.8916 4.5448ZM9.1488 7.5107C8.90097 7.89843 8.65314 8.29623 8.42048 8.70411C8.18782 9.10695 7.97034 9.50978 7.76297 9.91262C7.48985 9.23787 7.25719 8.56311 7.06499 7.9085C7.72756 7.7524 8.42554 7.61644 9.1488 7.5107V7.5107ZM4.57151 13.8151C2.78106 13.0548 1.62283 12.0577 1.62283 11.2672C1.62283 10.4766 2.78106 9.47454 4.57151 8.71921C5.00648 8.5329 5.48191 8.36673 5.97251 8.21063C6.26081 9.19758 6.64014 10.2248 7.11051 11.2772C6.6452 12.3246 6.27092 13.3468 5.98769 14.3287C5.48697 14.1726 5.01154 14.0014 4.57151 13.8151ZM7.29259 21.0108C6.60474 20.618 6.30633 19.1225 6.53899 17.199C6.59462 16.7256 6.68566 16.2271 6.79693 15.7185C7.78826 15.9602 8.87062 16.1465 10.0086 16.2674C10.6914 17.199 11.3995 18.0449 12.1127 18.7851C10.4638 20.3109 8.91614 21.1468 7.86412 21.1468C7.63652 21.1417 7.44433 21.0964 7.29259 21.0108V21.0108ZM19.2896 17.1738C19.5274 19.0973 19.234 20.5929 18.5512 20.9907C18.3995 21.0813 18.2022 21.1216 17.9696 21.1216C16.9226 21.1216 15.3699 20.2907 13.721 18.7751C14.4291 18.0348 15.1372 17.1939 15.8099 16.2624C16.9529 16.1415 18.0353 15.9552 19.0266 15.7085C19.143 16.217 19.234 16.7055 19.2896 17.1738V17.1738ZM21.2369 13.8151C20.8019 14.0014 20.3265 14.1676 19.8359 14.3237C19.5476 13.3367 19.1683 12.3095 18.6979 11.2571C19.1632 10.2097 19.5375 9.18751 19.8207 8.2056C20.3214 8.36169 20.7969 8.5329 21.2419 8.71921C23.0324 9.47957 24.1906 10.4766 24.1906 11.2672C24.1856 12.0577 23.0273 13.0598 21.2369 13.8151V13.8151Z" fill="white"/>
<path d="M12.9017 13.5682C14.1782 13.5682 15.2131 12.538 15.2131 11.267C15.2131 9.99611 14.1782 8.96582 12.9017 8.96582C11.6251 8.96582 10.5903 9.99611 10.5903 11.267C10.5903 12.538 11.6251 13.5682 12.9017 13.5682Z" fill="white"/>
</svg>
