<svg width="19" height="23" viewBox="0 0 19 23" fill="none" xmlns="http://www.w3.org/2000/svg">
<path d="M5.81315 22.2631C4.51197 21.6928 3.29444 20.2436 3.29146 18.7608C3.28792 17.1441 4.29848 15.7716 5.55546 14.8695C5.40429 15.4483 5.32196 15.9777 5.69624 16.4954C6.04432 16.9771 6.65375 17.2106 7.22936 17.0837C8.57408 16.7852 8.63585 15.2865 7.83857 14.4132C7.05035 13.5486 6.28776 12.5718 6.58778 11.3178C6.73806 10.6892 7.11875 10.1004 7.6011 9.67947C7.23036 10.6671 8.28379 11.6412 8.97786 12.1264C10.1823 12.9681 11.503 13.6043 12.6101 14.5911C13.7748 15.6286 14.6345 17.0313 14.4608 18.6573C14.273 20.4201 12.891 21.646 11.3412 22.2646C14.6162 21.5319 18 18.955 18.0693 15.2728C18.1268 12.2435 16.0769 9.91216 13.5378 8.57743L13.4052 8.50405C13.4749 8.67545 13.4977 8.82132 13.4951 8.95217C13.5186 8.85467 13.5329 8.7551 13.5376 8.65484C13.537 8.77611 13.5214 8.89681 13.491 9.01412L13.4951 8.95217C13.4575 9.11296 13.394 9.2664 13.3073 9.40634L13.3445 9.36579C12.838 10.2172 11.4666 10.4025 10.7891 9.5205C9.7 8.10175 10.8119 6.57197 10.9675 5.06953C11.1619 3.18652 9.99714 1.35818 8.55297 0.264648C9.3486 1.56913 8.30047 3.29496 7.46197 4.25977C6.64911 5.19511 5.66077 5.97597 4.76292 6.82527C3.79889 7.73854 2.8721 8.69999 2.07968 9.77167C0.494838 11.9154 -0.475383 14.6121 0.238138 17.287C0.950665 19.9601 3.23466 21.6617 5.81381 22.2634L5.81315 22.2631Z" fill="white"/>
</svg>
