<svg width="151" height="20" viewBox="0 0 151 20" fill="none" xmlns="http://www.w3.org/2000/svg">
<path fill-rule="evenodd" clip-rule="evenodd" d="M55.6952 0.615234C53.266 0.615234 52.9612 0.626637 52.0071 0.67325C51.0549 0.720062 50.4049 0.881905 49.8362 1.11937C49.2479 1.36463 48.7489 1.69272 48.2517 2.22666C47.7542 2.7604 47.4486 3.29614 47.2194 3.92751C46.9976 4.53827 46.8467 5.23626 46.8039 6.25813C46.7612 7.2824 46.75 7.60988 46.75 10.2178C46.75 12.8257 46.7608 13.1519 46.804 14.1762C46.8478 15.1985 46.9986 15.8963 47.2196 16.5068C47.4482 17.1384 47.7538 17.6741 48.2512 18.2079C48.7481 18.742 49.2472 19.0709 49.8351 19.3162C50.4042 19.5536 51.0543 19.7155 52.0063 19.7623C52.9604 19.8089 53.2651 19.8203 55.6941 19.8203C58.1234 19.8203 58.4273 19.8089 59.3814 19.7623C60.3336 19.7155 60.9843 19.5536 61.5534 19.3162C62.1415 19.0709 62.6398 18.742 63.1368 18.2079C63.6343 17.6741 63.9399 17.1384 64.1691 16.507C64.389 15.8963 64.5399 15.1983 64.5846 14.1764C64.6275 13.1522 64.6387 12.8257 64.6387 10.2178C64.6387 7.60988 64.6275 7.2826 64.5846 6.25833C64.5399 5.23606 64.389 4.53827 64.1691 3.92771C63.9399 3.29614 63.6343 2.7604 63.1368 2.22666C62.6392 1.69252 62.1417 1.36443 61.5528 1.11937C60.9826 0.881905 60.3323 0.720062 59.3801 0.67325C58.426 0.626637 58.1223 0.615234 55.6924 0.615234H55.6952ZM54.893 2.34561C55.1311 2.34521 55.3969 2.34561 55.6954 2.34561C58.0835 2.34561 58.3666 2.35481 59.3097 2.40082C60.1818 2.44364 60.6551 2.60008 60.9704 2.73152C61.3878 2.90556 61.6854 3.11362 61.9982 3.44971C62.3113 3.7858 62.5051 4.10589 62.6676 4.55402C62.79 4.89211 62.9359 5.40025 62.9756 6.3365C63.0185 7.34878 63.0278 7.65287 63.0278 10.2156C63.0278 12.7783 63.0185 13.0824 62.9756 14.0946C62.9357 15.0309 62.79 15.539 62.6676 15.8771C62.5055 16.3252 62.3113 16.6443 61.9982 16.9802C61.6852 17.3163 61.388 17.5244 60.9704 17.6984C60.6554 17.8305 60.1818 17.9865 59.3097 18.0293C58.3668 18.0753 58.0835 18.0853 55.6954 18.0853C53.307 18.0853 53.024 18.0753 52.0811 18.0293C51.209 17.9861 50.7357 17.8297 50.4202 17.6982C50.0028 17.5242 49.7046 17.3161 49.3916 16.98C49.0785 16.6439 48.8847 16.3246 48.7222 15.8763C48.5998 15.5382 48.4539 15.0301 48.4142 14.0938C48.3714 13.0816 48.3628 12.7775 48.3628 10.2132C48.3628 7.64886 48.3714 7.34638 48.4142 6.3341C48.4541 5.39785 48.5998 4.88971 48.7222 4.55122C48.8844 4.10309 49.0785 3.783 49.3916 3.44691C49.7046 3.11082 50.0028 2.90276 50.4202 2.72831C50.7355 2.59628 51.209 2.44024 52.0811 2.39722C52.9062 2.35721 53.226 2.34521 54.893 2.34321V2.34561ZM60.4698 3.94012C59.8772 3.94012 59.3965 4.45566 59.3965 5.09203C59.3965 5.7282 59.8772 6.24434 60.4698 6.24434C61.0624 6.24434 61.5432 5.7282 61.5432 5.09203C61.5432 4.45586 61.0624 3.93972 60.4698 3.93972V3.94012ZM55.6954 5.28643C53.1587 5.28643 51.1021 7.49443 51.1021 10.2178C51.1021 12.9411 53.1587 15.1481 55.6954 15.1481C58.2321 15.1481 60.288 12.9411 60.288 10.2178C60.288 7.49443 58.2319 5.28643 55.6952 5.28643H55.6954ZM55.6953 7.0169C57.3419 7.0169 58.6768 8.44988 58.6768 10.2177C58.6768 11.9854 57.3419 13.4186 55.6953 13.4186C54.0486 13.4186 52.7139 11.9854 52.7139 10.2177C52.7139 8.44988 54.0486 7.0169 55.6953 7.0169Z" fill="#0F001A"/>
<path fill-rule="evenodd" clip-rule="evenodd" d="M139.476 5.72409L139.523 6.55476L138.741 6.45304C135.894 6.06314 133.407 4.74084 131.295 2.52006L130.263 1.41814L129.997 2.23187C129.434 4.04579 129.794 5.96142 130.967 7.24981C131.593 7.96182 131.452 8.06353 130.373 7.63972C129.997 7.5041 129.669 7.40239 129.637 7.45324C129.528 7.57191 129.903 9.11459 130.201 9.72488C130.607 10.5725 131.436 11.4032 132.343 11.8948L133.11 12.2847L132.203 12.3017C131.327 12.3017 131.295 12.3186 131.389 12.6746C131.702 13.7765 132.938 14.9463 134.314 15.4548L135.284 15.8108L134.439 16.3533C133.188 17.1331 131.718 17.5739 130.247 17.6078C129.544 17.6248 128.965 17.6926 128.965 17.7434C128.965 17.913 130.873 18.8623 131.984 19.2352C135.315 20.3372 139.272 19.8625 142.244 17.9808C144.356 16.6415 146.467 13.98 147.453 11.4032C147.985 10.03 148.516 7.52105 148.516 6.31742C148.516 5.53761 148.563 5.43589 149.439 4.5035C149.955 3.96102 150.44 3.36768 150.534 3.19816C150.69 2.87606 150.675 2.87606 149.877 3.16425C148.548 3.67283 148.36 3.60502 149.017 2.84216C149.502 2.29968 150.08 1.31643 150.08 1.02824C150.08 0.977378 149.846 1.06214 149.58 1.21471C149.298 1.38424 148.673 1.63853 148.204 1.7911L147.359 2.07929L146.592 1.51986C146.17 1.21471 145.576 0.875663 145.263 0.773948C144.465 0.536613 143.245 0.570518 142.526 0.841758C140.571 1.60462 139.335 3.57112 139.476 5.72409Z" fill="#0F001A"/>
<path fill-rule="evenodd" clip-rule="evenodd" d="M25.2789 3.61417C24.9927 2.43368 24.1493 1.50409 23.0783 1.1886C21.1376 0.615234 13.3546 0.615234 13.3546 0.615234C13.3546 0.615234 5.57158 0.615234 3.63068 1.1886C2.55975 1.50409 1.71636 2.43368 1.43014 3.61417C0.910156 5.75368 0.910156 10.2178 0.910156 10.2178C0.910156 10.2178 0.910156 14.6817 1.43014 16.8214C1.71636 18.0019 2.55975 18.9315 3.63068 19.2471C5.57158 19.8203 13.3546 19.8203 13.3546 19.8203C13.3546 19.8203 21.1376 19.8203 23.0783 19.2471C24.1493 18.9315 24.9927 18.0019 25.2789 16.8214C25.799 14.6817 25.799 10.2178 25.799 10.2178C25.799 10.2178 25.799 5.75368 25.2789 3.61417Z" fill="#0F001A"/>
<path fill-rule="evenodd" clip-rule="evenodd" d="M11.0215 14.811V6.46094L17.2437 10.6361L11.0215 14.811Z" fill="white"/>
<path fill-rule="evenodd" clip-rule="evenodd" d="M98.1402 19.8203V10.2166H100.61L100.937 6.90717H98.1402L98.1444 5.25075C98.1444 4.38759 98.2208 3.92508 99.3756 3.92508H100.919V0.615234H98.4496C95.4831 0.615234 94.439 2.22069 94.439 4.92055V6.90755H92.5898V10.217H94.439V19.8203H98.1402Z" fill="#0F001A"/>
</svg>
