<svg width="22" height="18" viewBox="0 0 22 18" fill="none" xmlns="http://www.w3.org/2000/svg">
<path d="M16.5346 17.538C15.7025 17.4756 14.8836 17.3286 14.0975 17.1005C11.8693 16.4766 9.9114 15.4743 8.10434 14.2715C5.60063 12.6041 3.51192 10.6561 1.98028 8.33975C1.31603 7.32991 0.817535 6.27196 0.560808 5.14235C0.47731 4.77199 0.524042 4.45325 0.800086 4.13501C1.74973 3.03998 2.78536 2.00609 4.00793 1.09899C4.14055 1.00251 4.28221 0.914375 4.43165 0.835377C4.72265 0.679516 4.92579 0.68954 5.18999 0.87547C5.31456 0.960334 5.42625 1.05672 5.52274 1.16263C6.47612 2.24414 7.35909 3.36072 8.06633 4.5605C8.44831 5.2085 8.4103 5.31926 7.74106 5.79836C7.29989 6.11359 6.86059 6.43083 6.41568 6.74255C6.29106 6.82875 6.27734 6.91395 6.32346 7.03723C6.94658 8.70058 8.10933 10.0778 9.75437 11.1903C10.8835 11.9541 12.1447 12.532 13.5772 12.8507C13.7174 12.8823 13.8084 12.8692 13.9025 12.7825C14.2764 12.4397 14.6584 12.103 15.0304 11.7592C15.6765 11.1623 15.8192 11.1277 16.6978 11.4695C18.134 12.0374 19.5065 12.704 20.7999 13.4621C21.5476 13.8931 21.5744 14.1432 20.9569 14.6849C19.7754 15.7143 18.4352 16.618 16.9689 17.3742C16.8298 17.4381 16.6846 17.4929 16.5346 17.538V17.538Z" fill="white"/>
<path d="M11.6992 1.91994V0.753553C16.5297 0.592154 21.4312 3.99758 21.3813 8.51775H19.9132C19.8609 6.71329 19.0845 5.14541 17.4949 3.86625C15.9053 2.58709 13.9568 1.96004 11.6992 1.91994Z" fill="white"/>
<path d="M17.6425 8.52406H16.2093C15.922 6.3419 14.4334 5.13505 11.7041 4.89348V3.74627C14.849 3.66558 17.7185 5.88683 17.6425 8.52406Z" fill="white"/>
</svg>
