<svg width="154" height="23" viewBox="0 0 154 23" fill="none" xmlns="http://www.w3.org/2000/svg">
<path d="M12.4237 0L16.6335 7.05683L24.8083 8.78522L19.2352 14.875L20.0778 23L12.4237 19.7068L4.76958 23L5.61216 14.875L0.0390823 8.78522L8.21394 7.05683L12.4237 0Z" fill="#DFB300"/>
<path d="M44.2694 0L48.4792 7.05683L56.654 8.78522L51.0809 14.875L51.9235 23L44.2694 19.7068L36.6153 23L37.4579 14.875L31.8848 8.78522L40.0596 7.05683L44.2694 0Z" fill="#DFB300"/>
<path d="M77 0L80.9091 7.05683L88.5 8.78522L83.325 14.875L84.1074 23L77 19.7068L69.8927 23L70.675 14.875L65.5 8.78522L73.091 7.05683L77 0Z" fill="#DFB300"/>
<path d="M109.732 0L113.942 7.05683L122.117 8.78522L116.544 14.875L117.386 23L109.732 19.7068L102.078 23L102.921 14.875L97.3477 8.78522L105.523 7.05683L109.732 0Z" fill="#DFB300"/>
<path d="M141.578 0L145.788 7.05683L153.963 8.78522L148.39 14.875L149.232 23L141.578 19.7068L133.924 23L134.766 14.875L129.193 8.78522L137.368 7.05683L141.578 0Z" fill="#DFB300"/>
</svg>
