<svg width="138" height="20" viewBox="0 0 138 20" fill="none" xmlns="http://www.w3.org/2000/svg">
<g clip-path="url(#clip0_6_1010)">
<path d="M88.4966 6.75505V4.33134C88.4966 3.6624 89.0253 3.11948 89.6766 3.11948H90.8566V0.0898438H88.4966C86.5414 0.0898438 84.9567 1.71737 84.9567 3.72541V6.75505H82.5968V9.78469H84.9567V19.4795H88.4966V9.78469H90.8566L92.0365 6.75505H88.4966Z" fill="white"/>
</g>
<g clip-path="url(#clip1_6_1010)">
<path d="M56.2857 3.77325C55.5836 4.08954 54.8355 4.2992 54.0556 4.40099C54.858 3.90898 55.4704 3.13581 55.7583 2.2039C55.0102 2.66198 54.1842 2.98554 53.304 3.16611C52.5936 2.38931 51.5812 1.9082 50.4768 1.9082C48.3339 1.9082 46.6088 3.69448 46.6088 5.8843C46.6088 6.19939 46.6348 6.50235 46.6985 6.79077C43.4807 6.62959 40.6335 5.0457 38.7208 2.63289C38.3868 3.22791 38.191 3.90898 38.191 4.64215C38.191 6.01882 38.8812 7.23916 39.9102 7.94567C39.2883 7.93355 38.6783 7.74814 38.1615 7.45608C38.1615 7.4682 38.1615 7.48395 38.1615 7.49971C38.1615 9.43141 39.5031 11.0359 41.2624 11.4055C40.9474 11.494 40.604 11.5364 40.2476 11.5364C39.9998 11.5364 39.7497 11.5219 39.5149 11.4685C40.0164 13.0427 41.4394 14.2001 43.1315 14.2376C41.8146 15.2956 40.1426 15.933 38.3326 15.933C38.0151 15.933 37.7107 15.9185 37.4063 15.8785C39.1208 17.014 41.1527 17.6623 43.3439 17.6623C50.4661 17.6623 54.36 11.6031 54.36 6.35087C54.36 6.17515 54.3541 6.00549 54.3459 5.83704C55.114 5.27716 55.7595 4.57792 56.2857 3.77325Z" fill="white"/>
</g>
<g clip-path="url(#clip2_6_1010)">
<path d="M132.115 0.0898438H123.456C120.638 0.0898438 118.346 2.44432 118.346 5.33845V14.231C118.346 17.125 120.638 19.4795 123.456 19.4795H132.115C134.933 19.4795 137.225 17.125 137.225 14.231V5.33845C137.225 2.44432 134.933 0.0898438 132.115 0.0898438V0.0898438ZM127.785 15.0864C124.939 15.0864 122.623 12.7081 122.623 9.78468C122.623 6.86126 124.939 4.48296 127.785 4.48296C130.632 4.48296 132.948 6.86126 132.948 9.78468C132.948 12.7081 130.632 15.0864 127.785 15.0864V15.0864ZM133.071 5.73328C132.23 5.73328 131.546 5.0306 131.546 4.16669C131.546 3.30277 132.23 2.59994 133.071 2.59994C133.912 2.59994 134.597 3.30277 134.597 4.16669C134.597 5.0306 133.912 5.73328 133.071 5.73328Z" fill="white"/>
<path d="M127.785 5.61914C125.549 5.61914 123.73 7.48751 123.73 9.78415C123.73 12.0806 125.549 13.9492 127.785 13.9492C130.021 13.9492 131.84 12.0806 131.84 9.78415C131.84 7.48751 130.021 5.61914 127.785 5.61914V5.61914Z" fill="white"/>
<path d="M133.071 3.73633C132.84 3.73633 132.653 3.92923 132.653 4.16622C132.653 4.4032 132.84 4.59611 133.071 4.59611C133.302 4.59611 133.49 4.40335 133.49 4.16622C133.49 3.92908 133.302 3.73633 133.071 3.73633Z" fill="white"/>
</g>
<g clip-path="url(#clip3_6_1010)">
<path d="M0 16.0333V4.04718C0.0107274 4.00302 0.0239109 3.95969 0.0317502 3.91512C0.118108 3.41857 0.37611 2.96813 0.760715 2.6425C1.14532 2.31687 1.63208 2.13673 2.13596 2.13354C5.98681 2.12997 9.83686 2.12997 13.6861 2.13354C14.2492 2.13603 14.7885 2.36072 15.1869 2.75877C15.5854 3.15682 15.8106 3.69605 15.8138 4.2593C15.8193 8.11435 15.8193 11.9695 15.8138 15.8249C15.8138 16.7637 15.1743 17.5928 14.2736 17.8565C14.1498 17.8928 14.026 17.918 13.9023 17.9481H1.91524C1.88675 17.9374 1.85768 17.9284 1.82817 17.9209C0.929962 17.7529 0.349057 17.2288 0.0771594 16.3593C0.0441521 16.2532 0.0255806 16.1422 0 16.0333ZM8.42592 9.12117C8.42592 8.98911 8.42799 8.85705 8.42592 8.72499C8.42138 8.4749 8.3137 8.36389 8.06821 8.36266C7.61023 8.36046 7.15227 8.36046 6.69429 8.36266C6.44673 8.36266 6.33492 8.47284 6.33492 8.72045C6.33492 10.6865 6.33492 12.6525 6.33492 14.6186C6.33492 14.8707 6.44962 14.9822 6.70626 14.983C7.12834 14.983 7.55039 14.983 7.97248 14.983C8.33349 14.983 8.41972 14.8976 8.41972 14.5389C8.41972 13.551 8.41972 12.563 8.41972 11.5746C8.41972 11.1974 8.50226 10.8388 8.71268 10.5194C8.96808 10.1302 9.34271 10.0113 9.78542 10.0716C10.191 10.1269 10.4633 10.3671 10.5565 10.7525C10.6334 11.0819 10.6734 11.4188 10.6758 11.757C10.6906 12.7087 10.6791 13.6612 10.6799 14.6132C10.6799 14.8712 10.7905 14.9793 11.0475 14.9801C11.5105 14.9801 11.9735 14.9801 12.4367 14.9801C12.7107 14.9801 12.82 14.8699 12.82 14.5946C12.82 13.5138 12.832 12.433 12.8097 11.3526C12.8021 10.9005 12.7514 10.4501 12.6583 10.0076C12.4829 9.19545 12.0365 8.58715 11.1915 8.36471C10.9427 8.30069 10.6872 8.26647 10.4303 8.26278C9.64431 8.24916 8.9363 8.43281 8.42592 9.12117ZM3.30568 11.6798C3.30568 12.6472 3.30568 13.6145 3.30568 14.5819C3.30568 14.8641 3.42698 14.9834 3.71167 14.9838C4.13389 14.9838 4.55582 14.9838 4.97748 14.9838C5.27042 14.9838 5.39338 14.8658 5.39338 14.574C5.39338 12.6393 5.39338 10.7045 5.39338 8.76956C5.39338 8.47573 5.27496 8.36142 4.97748 8.36018C4.56077 8.35853 4.14393 8.35853 3.72694 8.36018C3.41461 8.36018 3.30565 8.47408 3.30524 8.79267L3.30568 11.6798ZM5.69331 6.45315C5.69509 6.18699 5.61802 5.92627 5.47179 5.7039C5.32555 5.48154 5.11672 5.30748 4.87168 5.20371C4.62663 5.09995 4.35634 5.07113 4.09493 5.12088C3.83352 5.17063 3.59269 5.29673 3.40287 5.48326C3.21305 5.66979 3.08276 5.90839 3.02839 6.16893C2.97403 6.42948 2.99804 6.7003 3.09741 6.94721C3.19679 7.19411 3.36707 7.40603 3.58676 7.55622C3.80645 7.70641 4.06568 7.78814 4.33176 7.79108C4.50919 7.79321 4.68528 7.76017 4.84988 7.69389C5.01448 7.62761 5.16433 7.5294 5.29079 7.4049C5.41726 7.28041 5.51783 7.1321 5.5867 6.96854C5.65557 6.80497 5.69141 6.62939 5.6921 6.45191L5.69331 6.45315Z" fill="white"/>
</g>
<defs>
<clipPath id="clip0_6_1010">
<rect width="18.8794" height="19.3897" fill="white" transform="translate(77.877 0.0898438)"/>
</clipPath>
<clipPath id="clip1_6_1010">
<rect width="18.8794" height="19.3897" fill="white" transform="translate(37.4062 0.0898438)"/>
</clipPath>
<clipPath id="clip2_6_1010">
<rect width="18.8794" height="19.3897" fill="white" transform="translate(118.346 0.0898438)"/>
</clipPath>
<clipPath id="clip3_6_1010">
<rect width="15.8179" height="15.8179" fill="white" transform="translate(0 2.13086)"/>
</clipPath>
</defs>
</svg>
