<svg width="74" height="23" viewBox="0 0 74 23" fill="none" xmlns="http://www.w3.org/2000/svg">
<path d="M12.535 0L16.7448 7.05683L24.9196 8.78522L19.3466 14.875L20.1891 23L12.535 19.7068L4.88091 23L5.72349 14.875L0.15041 8.78522L8.32526 7.05683L12.535 0Z" fill="#DFB300"/>
<path d="M44.3807 0L48.5905 7.05683L56.7653 8.78522L51.1923 14.875L52.0348 23L44.3807 19.7068L36.7266 23L37.5692 14.875L31.9961 8.78522L40.171 7.05683L44.3807 0Z" fill="#DFB300"/>
<path d="M77.1114 0L81.0204 7.05683L88.6114 8.78522L83.4364 14.875L84.2188 23L77.1114 19.7068L70.004 23L70.7864 14.875L65.6114 8.78522L73.2023 7.05683L77.1114 0Z" fill="#DFB300"/>
</svg>
