<svg width="53" height="57" viewBox="0 0 53 57" fill="none" xmlns="http://www.w3.org/2000/svg">
<path fill-rule="evenodd" clip-rule="evenodd" d="M36.3693 19.4904C33.9261 24.5722 28.7297 28.08 22.7141 28.08C14.351 28.08 7.57132 21.3004 7.57132 12.9373C7.57132 7.45808 10.4814 2.65855 14.8404 0C6.3926 1.58396 0 8.99844 0 17.906C0 27.9679 8.15675 36.1246 18.2186 36.1246C27.7467 36.1246 35.5664 28.8104 36.3693 19.4904Z" fill="white"/>
<path fill-rule="evenodd" clip-rule="evenodd" d="M43.7711 42.0103C39.3661 45.5301 33.1627 46.4379 27.742 43.8296C20.2059 40.2034 17.0363 31.1546 20.6624 23.6186C23.0382 18.6812 27.7415 15.618 32.8221 15.1124C24.5229 12.8768 15.5476 16.7863 11.6854 24.8131C7.32268 33.8799 11.1361 44.7667 20.203 49.1294C28.7888 53.2606 39.0065 50.0603 43.7711 42.0103Z" fill="white"/>
</svg>
