<svg width="25" height="26" viewBox="0 0 25 26" fill="none" xmlns="http://www.w3.org/2000/svg">
<path d="M9.20491 0.999786C9.59963 1.08715 9.9779 1.19986 10.3055 1.45396C10.9246 1.93347 11.2134 2.57904 11.2134 3.35333C11.2206 5.57416 11.2252 7.79499 11.2134 10.0158C11.2068 11.1636 10.568 11.9926 9.49569 12.2833C9.26991 12.3392 9.03795 12.3652 8.80559 12.3607C6.67059 12.366 4.53582 12.366 2.40127 12.3607C1.4296 12.3607 0.665817 11.9672 0.241494 11.0575C0.0967577 10.7413 0.019208 10.3977 0.0138729 10.0492C-0.00586309 7.80366 -0.00323268 5.55882 0.00663531 3.31332C0.0118982 2.11687 0.778311 1.22654 1.93681 1.0278C1.96759 1.0198 1.99755 1.00886 2.02628 0.995117L9.20491 0.999786Z" fill="white"/>
<path d="M24.6677 10.3242C24.5828 10.7244 24.4703 11.1078 24.2197 11.44C23.7407 12.0762 23.094 12.3623 22.3211 12.3636C20.1453 12.369 17.9699 12.369 15.795 12.3636C14.6523 12.359 13.8247 11.7134 13.5313 10.6196C13.4796 10.4151 13.4546 10.2046 13.457 9.99341C13.4517 7.78859 13.4471 5.5831 13.457 3.37828C13.4609 2.41192 13.8695 1.66897 14.7411 1.23414C14.9668 1.1221 15.2247 1.07609 15.4648 1.00006H22.6421C22.6784 1.01545 22.7161 1.02751 22.7546 1.03607C23.3055 1.11662 23.8059 1.40566 24.1552 1.84504C24.4466 2.1965 24.5788 2.61266 24.665 3.05082L24.6677 10.3242Z" fill="white"/>
<path d="M5.60371 25.9968C4.51232 25.9968 3.42092 26.0041 2.32952 25.9968C1.38153 25.9888 0.650644 25.5766 0.242767 24.6976C0.0961011 24.3736 0.0185384 24.0218 0.0151466 23.6652C-0.0045894 21.4371 0.000673203 19.2082 0.00659399 16.9801C0.00988332 15.851 0.652618 15.006 1.7256 14.7126C1.93548 14.6592 2.15131 14.6336 2.36767 14.6365C4.52591 14.6312 6.68437 14.6312 8.84304 14.6365C10.0022 14.6365 10.837 15.2688 11.1364 16.3705C11.1919 16.5908 11.2185 16.8175 11.2153 17.0448C11.221 19.2331 11.221 21.4211 11.2153 23.6086C11.2153 24.7703 10.589 25.6193 9.5167 25.9188C9.29123 25.9753 9.05949 26.002 8.82725 25.9981C7.75428 26.0008 6.67867 25.9968 5.60371 25.9968Z" fill="white"/>
<path d="M20.1849 19.1762H21.6539C22.2328 19.1762 22.4229 19.3669 22.4249 19.9451C22.4249 20.2379 22.4321 20.5314 22.4249 20.8235C22.4098 21.2363 22.1966 21.447 21.7861 21.4517C21.2651 21.4584 20.7441 21.4517 20.1882 21.4517V22.1853C20.1882 22.4781 20.1921 22.7715 20.1882 23.0643C20.1809 23.4918 19.9737 23.7079 19.5513 23.7199C19.2468 23.7285 18.9415 23.7252 18.6363 23.7199C18.1567 23.7145 17.9475 23.5051 17.9429 23.021C17.9383 22.5088 17.9429 21.9972 17.9429 21.451H17.4074C17.0548 21.451 16.7015 21.4557 16.3482 21.451C15.9278 21.4437 15.714 21.2243 15.7081 20.8001C15.7035 20.4907 15.7081 20.1819 15.7081 19.8724C15.7081 19.3923 15.9206 19.1802 16.4021 19.1755C16.8278 19.1715 17.2534 19.1755 17.6784 19.1755C17.7567 19.1755 17.835 19.1688 17.9416 19.1635C17.9416 18.7307 17.9416 18.3105 17.9416 17.8904C17.937 17.7363 17.9427 17.5821 17.9587 17.4289C18.0054 17.0954 18.1955 16.9233 18.5251 16.9133C18.8698 16.9033 19.2152 16.906 19.5606 16.9133C19.9632 16.92 20.1803 17.1394 20.1862 17.5542C20.1908 18.0798 20.1849 18.606 20.1849 19.1762Z" fill="white"/>
</svg>
