<svg width="18" height="25" viewBox="0 0 18 25" fill="none" xmlns="http://www.w3.org/2000/svg">
<path d="M2.11481 0.264648H3.21931V1.35398H4.22951V0.264648H5.3345V3.56336H4.22961V2.45877H3.21931V3.56336H2.11491V0.264648H2.11481ZM6.78629 1.35858H5.81412V0.264648H8.86326V1.35858H7.89089V3.56336H6.78639L6.78629 1.35858ZM9.34748 0.264648H10.499L11.2074 1.42375L11.9151 0.264648H13.0672V3.56336H11.9674V1.92829L11.2075 3.10119H11.1885L10.4282 1.92829V3.56336H9.34758V0.264648H9.34748ZM13.6169 0.264648H14.7216V2.47296H16.2747V3.56336H13.6173L13.6169 0.264648Z" fill="white"/>
<path d="M0.5 5.07227L2.0798 22.7619L9.16917 24.7267L16.278 22.7592L17.8595 5.07227H0.5ZM14.5642 9.27027L14.4652 10.3702L14.4213 10.8578H6.10543L6.30402 13.0791H14.2241L14.1711 13.6616L13.6604 19.3735L13.6278 19.74L9.17995 20.9706L9.17015 20.9733L4.71843 19.7396L4.41339 16.3339H6.59495L6.74972 18.0642L9.17015 18.7166L9.17211 18.7161L11.5959 18.063L11.8482 15.2493H4.31625L3.78214 9.27027L3.73018 8.68823H14.6163L14.5642 9.27027Z" fill="white"/>
</svg>
