<svg width="25" height="18" viewBox="0 0 25 18" fill="none" xmlns="http://www.w3.org/2000/svg">
<path d="M16.1788 0.898466C16.1562 0.898481 16.134 0.904487 16.1143 0.915891C16.0948 0.927504 16.0786 0.944087 16.0673 0.964007C16.056 0.983926 16.05 1.00649 16.0499 1.02949V4.37137C16.0499 4.40415 16.0349 4.43354 16.007 4.44999C15.9933 4.45811 15.9777 4.46238 15.9619 4.46238C15.946 4.46238 15.9304 4.45811 15.9167 4.44999L15.3797 4.13549C15.3406 4.11244 15.2961 4.10031 15.2509 4.10031C15.2056 4.10031 15.1611 4.11244 15.122 4.13549L12.9783 5.39357C12.8981 5.44062 12.8494 5.53103 12.8494 5.62513V8.14135C12.8494 8.23534 12.8982 8.32143 12.9783 8.36848L15.122 9.62662C15.1611 9.64973 15.2056 9.6619 15.2509 9.6619C15.2961 9.6619 15.3406 9.64973 15.3797 9.62662L17.5234 8.36848C17.5627 8.34551 17.5953 8.31241 17.6179 8.27253C17.6405 8.23265 17.6524 8.1874 17.6523 8.14135V1.86827C17.6523 1.82114 17.6399 1.77487 17.6165 1.73419C17.5931 1.69351 17.5596 1.65987 17.5192 1.6367L16.2432 0.911519C16.2232 0.900166 16.201 0.898162 16.1788 0.898466V0.898466ZM2.38857 4.03938C2.34773 4.04102 2.30928 4.0483 2.27262 4.06992L0.128852 5.32806C0.0895822 5.351 0.0569788 5.38409 0.0343494 5.42398C0.0117199 5.46387 -0.000130287 5.50914 1.08045e-06 5.55519L0.00430008 8.9321C0.00430008 8.97903 0.0281237 9.02269 0.0687254 9.04564C0.0881908 9.05753 0.110472 9.06382 0.13318 9.06382C0.155889 9.06382 0.17817 9.05753 0.197636 9.04564L1.46924 8.30303C1.54979 8.25434 1.60239 8.1697 1.60239 8.07584V6.49882C1.60239 6.40472 1.65106 6.31838 1.7313 6.27163L2.27256 5.95275C2.31169 5.92961 2.3562 5.91754 2.40147 5.91778C2.44565 5.91778 2.49103 5.92901 2.53032 5.95275L3.07164 6.27163C3.11094 6.29455 3.14358 6.32764 3.16622 6.36755C3.18886 6.40746 3.20071 6.45275 3.20055 6.49882V8.07578C3.20055 8.16964 3.25369 8.25489 3.3337 8.30297L4.6053 9.04564C4.62477 9.05753 4.64705 9.06382 4.66976 9.06382C4.69247 9.06382 4.71475 9.05753 4.73421 9.04564C4.75381 9.03411 4.77008 9.01755 4.78139 8.99761C4.79271 8.97767 4.79868 8.95506 4.7987 8.93204L4.80288 5.55519C4.80313 5.50911 4.79134 5.4638 4.76869 5.42388C4.74605 5.38397 4.71338 5.3509 4.67403 5.32806L2.53032 4.06992C2.49408 4.0483 2.45551 4.04108 2.41437 4.03938H2.38857ZM21.6519 4.06992C21.6071 4.06992 21.5632 4.08145 21.5231 4.10489L19.3794 5.36303C19.3401 5.38599 19.3075 5.41909 19.2849 5.45897C19.2622 5.49885 19.2504 5.54411 19.2504 5.59016V8.10638C19.2504 8.20103 19.3029 8.28676 19.3836 8.33357L21.5102 9.56548C21.5887 9.61102 21.6846 9.61448 21.7636 9.56973L23.0524 8.84024C23.0933 8.81717 23.121 8.77406 23.1212 8.7267C23.1214 8.70364 23.1155 8.68094 23.1042 8.66096C23.0929 8.64099 23.0765 8.62446 23.0567 8.61311L20.9001 7.35497C20.8598 7.33153 20.8314 7.28411 20.8314 7.237V6.45074C20.8314 6.40368 20.8601 6.36058 20.9001 6.33714L21.5703 5.94395C21.5899 5.93242 21.6121 5.92635 21.6347 5.92635C21.6574 5.92635 21.6796 5.93242 21.6992 5.94395L22.3693 6.33714C22.3889 6.34861 22.4052 6.36515 22.4166 6.38509C22.4279 6.40503 22.4338 6.42765 22.4338 6.45068V7.071C22.4337 7.09402 22.4397 7.11665 22.451 7.13659C22.4623 7.15653 22.4786 7.17307 22.4982 7.18454C22.5384 7.20816 22.587 7.20822 22.6271 7.18454L23.9116 6.42457C23.9508 6.40151 23.9834 6.36839 24.006 6.32851C24.0286 6.28863 24.0405 6.24341 24.0405 6.19737V5.59022C24.0405 5.49642 23.9916 5.41014 23.9116 5.36303L21.7808 4.10489C21.7416 4.08185 21.6972 4.0698 21.6519 4.06998V4.06992ZM15.2422 5.94838C15.2534 5.94838 15.2666 5.95117 15.2766 5.95706L16.0113 6.38954C16.0312 6.40125 16.0457 6.42293 16.0457 6.44631V7.31125C16.0457 7.33475 16.0313 7.35636 16.0113 7.36808L15.2766 7.80056C15.2668 7.80625 15.2557 7.80925 15.2444 7.80925C15.2331 7.80925 15.222 7.80625 15.2122 7.80056L14.4776 7.36808C14.4576 7.3563 14.4432 7.33475 14.4432 7.31125V6.44631C14.4432 6.42287 14.4577 6.40138 14.4776 6.38954L15.2122 5.95712C15.2212 5.95141 15.2316 5.9484 15.2423 5.94844V5.94838H15.2422Z" fill="white"/>
<path d="M8.82823 4.05664C8.78356 4.05664 8.73938 4.06818 8.69938 4.09161L6.55567 5.34538C6.47548 5.39231 6.42676 5.4829 6.42676 5.57689V8.0931C6.42676 8.18721 6.47554 8.27318 6.55567 8.3203L8.69938 9.57837C8.73852 9.6015 8.78298 9.61368 8.82826 9.61368C8.87353 9.61368 8.91799 9.6015 8.95714 9.57837L11.1008 8.3203C11.1401 8.29731 11.1727 8.2642 11.1953 8.22431C11.2179 8.18441 11.2298 8.13915 11.2297 8.0931V5.57689C11.2297 5.48278 11.181 5.39231 11.1008 5.34538L8.95714 4.09161C8.91795 4.0686 8.87348 4.05653 8.82823 4.05664V4.05664ZM21.6475 6.30207C21.639 6.30207 21.6295 6.30207 21.6218 6.30644L21.2094 6.55106C21.2017 6.5554 21.1953 6.56173 21.1907 6.5694C21.1862 6.57708 21.1838 6.58583 21.1836 6.59477V7.07527C21.1836 7.09337 21.1939 7.10994 21.2094 7.11899L21.6218 7.35924C21.6373 7.36834 21.6538 7.36834 21.669 7.35924L22.0814 7.11893C22.0891 7.11456 22.0955 7.10824 22.1 7.10058C22.1046 7.09292 22.107 7.0842 22.1072 7.07527V6.59471C22.107 6.58578 22.1046 6.57706 22.1 6.56941C22.0955 6.56175 22.0891 6.55543 22.0814 6.55106L21.669 6.30638C21.6614 6.30182 21.6561 6.30213 21.6475 6.30213V6.30207Z" fill="white"/>
<path d="M11.8509 12.0264C11.7766 12.0264 11.7044 12.042 11.6404 12.0788L9.61703 13.267C9.48609 13.3437 9.40649 13.4886 9.40649 13.6427V16.0148C9.40649 16.1688 9.48609 16.3135 9.61703 16.3904L10.1454 16.7006C10.4022 16.8293 10.4968 16.8273 10.6137 16.8273C10.9938 16.8273 11.2108 16.5927 11.2108 16.1852V13.8436C11.2108 13.8105 11.1826 13.7869 11.1507 13.7869H10.8972C10.8648 13.7869 10.8371 13.8105 10.8371 13.8436V16.1852C10.8371 16.3658 10.652 16.5475 10.3517 16.3948L9.80176 16.0672C9.7823 16.0565 9.76737 16.0374 9.76737 16.0148V13.6427C9.76737 13.6202 9.78212 13.5973 9.80176 13.5859L11.8209 12.4021C11.83 12.3967 11.8404 12.3939 11.8509 12.3939C11.8615 12.3939 11.8719 12.3967 11.881 12.4021L13.9001 13.586C13.9194 13.5977 13.9345 13.6195 13.9345 13.6428V16.0149C13.9345 16.0375 13.9233 16.0607 13.9044 16.0716L11.881 17.2555C11.8637 17.266 11.8398 17.266 11.8209 17.2555L11.301 16.9409C11.2931 16.9366 11.2843 16.9343 11.2753 16.9343C11.2663 16.9343 11.2574 16.9366 11.2495 16.9409C11.106 17.0236 11.079 17.0332 10.9445 17.0807C10.9113 17.0925 10.861 17.1108 10.9617 17.1681L11.6404 17.5743C11.7044 17.6119 11.7771 17.6315 11.851 17.6312C11.9248 17.6316 11.9975 17.612 12.0614 17.5744L14.0849 16.3905C14.2158 16.3131 14.2954 16.1689 14.2954 16.0149V13.6427C14.2954 13.4886 14.2158 13.344 14.0849 13.2671L12.0614 12.0789C11.998 12.042 11.9253 12.0264 11.851 12.0264L11.8509 12.0264Z" fill="white"/>
<path d="M12.3919 13.7217C11.8157 13.7217 11.4725 13.971 11.4725 14.3857C11.4725 14.8355 11.8131 14.9591 12.3661 15.0147C13.0277 15.0806 13.0792 15.1794 13.0792 15.3118C13.0792 15.5415 12.8991 15.6394 12.4735 15.6394C11.9387 15.6394 11.8212 15.5037 11.7819 15.2332C11.7772 15.2042 11.7552 15.1807 11.726 15.1807H11.4639C11.4317 15.1807 11.4038 15.209 11.4038 15.2419C11.4038 15.5882 11.589 15.9976 12.4735 15.9976C13.1138 15.9976 13.4831 15.7421 13.4831 15.2943C13.4831 14.8505 13.1848 14.7313 12.5637 14.6478C11.9362 14.5634 11.8763 14.522 11.8763 14.3726C11.8763 14.2492 11.9271 14.0842 12.3919 14.0842C12.8071 14.0842 12.9605 14.1753 13.0234 14.46C13.0289 14.4867 13.0521 14.508 13.0792 14.508H13.3413C13.3575 14.508 13.3731 14.4979 13.3843 14.4861C13.3953 14.4736 13.403 14.4594 13.4015 14.4425C13.3609 13.9523 13.0394 13.7217 12.3919 13.7217V13.7217Z" fill="white"/>
</svg>
