<svg width="30" height="21" viewBox="0 0 30 21" fill="none" xmlns="http://www.w3.org/2000/svg">
<path d="M29.5058 9.61027C29.2946 9.40204 26.5832 6.03566 26.1255 5.48038C25.6325 4.9251 25.4212 5.02922 25.1043 5.06392C24.7874 5.09863 21.3718 5.68861 20.9845 5.72332C20.5971 5.79273 20.3507 5.93155 20.5972 6.2786C20.8084 6.59094 23.062 9.71439 23.555 10.4432L14.5759 12.5602L7.46301 0.795212C7.18131 0.378752 7.11088 0.239932 6.47706 0.274637C5.84324 0.309342 0.878326 0.725802 0.526204 0.725802C0.174082 0.760507 -0.213252 0.899326 0.13887 1.73225C0.490992 2.56516 6.12494 14.5037 6.26579 14.8507C6.40664 15.1978 6.82919 15.753 7.77991 15.5448C8.76586 15.3019 12.1462 14.4343 14.0125 13.9484C14.9984 15.6836 16.9703 19.2235 17.3576 19.7441C17.8506 20.4382 18.2027 20.2994 18.9422 20.0912C19.5408 19.9176 28.1678 16.8636 28.5551 16.6901C28.9424 16.5166 29.1889 16.4124 28.9072 16.0307C28.696 15.753 26.4424 12.7337 25.2452 11.172C26.055 10.9638 28.9776 10.2003 29.2946 10.0961C29.6467 9.99203 29.7171 9.8185 29.5058 9.61027V9.61027ZM13.2026 12.9072C13.097 12.9419 8.06161 14.1219 7.81513 14.1913C7.53343 14.2607 7.53343 14.226 7.53343 14.1219C7.463 14.0178 1.54736 1.94048 1.44172 1.80166C1.3713 1.66284 1.3713 1.52402 1.44172 1.52402C1.51215 1.52402 6.19537 1.10756 6.33621 1.10756C6.51228 1.10756 6.47706 1.14226 6.54749 1.24638C6.54749 1.24638 13.1322 12.4561 13.2378 12.6296C13.3787 12.8031 13.3082 12.8725 13.2026 12.9072V12.9072ZM27.3579 15.5101C27.4283 15.6489 27.534 15.7183 27.2523 15.7878C27.0058 15.8919 18.7661 18.6336 18.5901 18.703C18.414 18.7724 18.3084 18.8071 18.0971 18.4947C17.8858 18.1824 15.2097 13.636 15.2097 13.636L23.9775 11.3802C24.1888 11.3108 24.2592 11.2761 24.4001 11.4843C24.5409 11.7273 27.2875 15.406 27.3579 15.5101ZM27.9213 9.40204C27.71 9.43675 24.5057 10.235 24.5057 10.235L21.8648 6.69505C21.7944 6.59094 21.7239 6.48682 21.9 6.45212C22.0761 6.41742 25.0691 5.89684 25.2099 5.86214C25.3508 5.82743 25.4564 5.79273 25.6325 6.03566C25.8086 6.24389 28.0621 9.0897 28.1678 9.19381C28.2734 9.29793 28.1326 9.36734 27.9213 9.40204Z" fill="white"/>
</svg>
