<svg width="23" height="27" viewBox="0 0 23 27" fill="none" xmlns="http://www.w3.org/2000/svg">
<path d="M20.1269 5.32627C20.1088 5.1956 19.9938 5.12336 19.8987 5.11531C19.8036 5.10726 17.7952 4.95935 17.7952 4.95935C17.7952 4.95935 16.4001 3.58146 16.247 3.42905C16.0939 3.27663 15.7952 3.32294 15.6784 3.35692C15.6614 3.36194 15.3737 3.45027 14.8978 3.59683C14.4318 2.26274 13.6094 1.03727 12.1627 1.03727C12.1227 1.03727 12.0815 1.03894 12.0405 1.04124C11.629 0.499854 11.1193 0.264648 10.6791 0.264648C7.30882 0.264648 5.69871 4.45653 5.19374 6.58644C3.88414 6.99016 2.95385 7.27721 2.83501 7.31432C2.10404 7.54253 2.08092 7.56521 1.98489 8.25065C1.9127 8.76957 0 23.4859 0 23.4859L14.904 26.2641L22.9795 24.526C22.9795 24.526 20.1447 5.45694 20.1269 5.32627ZM11.5878 2.10657C11.795 2.62329 11.9298 3.36476 11.9298 4.36537C11.9298 4.41649 11.9298 4.46332 11.9289 4.51068C11.1088 4.76345 10.2176 5.03785 9.32439 5.3132C9.82568 3.38744 10.766 2.45739 11.5878 2.10657V2.10657ZM10.5864 1.16345C10.7318 1.16345 10.8784 1.21268 11.0187 1.30865C9.93853 1.81439 8.78065 3.08795 8.29186 5.6312L6.23311 6.26562C6.80585 4.32565 8.16556 1.16345 10.5864 1.16345V1.16345ZM12.1624 9.55473L11.1667 12.5016C11.1667 12.5016 10.2946 12.0383 9.22489 12.0383C7.65702 12.0383 7.57822 13.0172 7.57822 13.2639C7.57822 14.6098 11.1045 15.1254 11.1045 18.278C11.1045 20.7583 9.52329 22.3549 7.3913 22.3549C4.83293 22.3549 3.5247 20.7708 3.5247 20.7708L4.20976 18.519C4.20976 18.519 5.55466 19.6676 6.68943 19.6676C7.43091 19.6676 7.73257 19.0868 7.73257 18.6624C7.73257 16.9068 4.83955 16.8284 4.83955 13.9437C4.83955 11.5156 6.59118 9.16638 10.127 9.16638C11.4895 9.16638 12.1626 9.55463 12.1626 9.55463L12.1624 9.55473ZM12.8127 4.23857C12.8127 4.15024 12.8137 4.06316 12.8137 3.96803C12.8137 3.13896 12.6981 2.4714 12.5123 1.94213C13.2583 2.03527 13.7543 2.87909 14.0739 3.85033L12.8127 4.23857Z" fill="white"/>
</svg>
