<svg width="25" height="26" viewBox="0 0 25 26" fill="none" xmlns="http://www.w3.org/2000/svg">
<path d="M15.0546 11.1461C15.0303 11.2484 14.9995 11.349 14.9623 11.4472C13.557 14.79 12.1499 18.132 10.7411 21.4734C10.5502 21.9183 10.1447 22.1029 9.7609 21.9267C9.37709 21.7506 9.24534 21.3439 9.42992 20.9023C10.8391 17.5527 12.25 14.2035 13.6626 10.8547C13.8179 10.4869 14.1362 10.3024 14.4735 10.3703C14.8108 10.4383 15.0514 10.7356 15.0546 11.1461Z" fill="#2196F3"/>
<path d="M5.4833 16.1764C6.43804 16.9534 7.35968 17.7059 8.28387 18.4545C8.52638 18.6488 8.66577 18.8903 8.60913 19.2095C8.51238 19.7619 7.89689 19.9899 7.44561 19.6337C6.90587 19.2089 6.37886 18.7686 5.84611 18.3347C5.21408 17.8205 4.5814 17.3083 3.95127 16.7916C3.50573 16.4283 3.50572 15.9238 3.94363 15.5612C5.09398 14.6209 6.24583 13.6828 7.39915 12.7469C7.76704 12.4484 8.19349 12.473 8.45891 12.8013C8.72432 13.1296 8.66514 13.5784 8.29088 13.8847C7.43713 14.5823 6.58232 15.2778 5.72645 15.9711C5.65389 16.0339 5.58196 16.0941 5.4833 16.1764Z" fill="#2196F3"/>
<path d="M18.9086 16.1719C18.1843 15.5807 17.4854 15.0115 16.7865 14.4423C16.5453 14.248 16.3009 14.0538 16.0628 13.8517C15.7325 13.5733 15.6771 13.1394 15.9234 12.8156C16.1698 12.4918 16.6058 12.4362 16.9418 12.7075C18.13 13.665 19.3132 14.6279 20.4916 15.5963C20.8773 15.9129 20.8779 16.4297 20.4916 16.747C19.3136 17.7157 18.1304 18.6784 16.9418 19.6351C16.6045 19.9071 16.1698 19.8507 15.9234 19.5283C15.6771 19.2058 15.7287 18.7693 16.0622 18.496C16.9323 17.7837 17.8075 17.0714 18.6807 16.3591C18.7488 16.3112 18.8138 16.2522 18.9086 16.1719Z" fill="#2196F3"/>
<path d="M24.2017 2.20207C23.8045 1.36024 23.1375 0.915367 22.2177 0.906949C20.6781 0.896588 19.1378 0.906949 17.5981 0.906949C12.4773 0.906949 7.35711 0.906949 2.23758 0.906949C1.174 0.906949 0.333836 1.53573 0.0779661 2.52974C0.02725 2.7329 0.0020184 2.94178 0.00286422 3.1514C-0.00095474 9.8951 -0.00095474 16.6388 0.00286422 23.3825C0.00286422 24.6835 0.933418 25.6263 2.21531 25.627C8.86709 25.627 15.5193 25.627 22.1719 25.627C23.2896 25.627 24.1062 24.9574 24.3544 23.85C24.3656 23.8116 24.3792 23.774 24.3952 23.7374V2.79653C24.3309 2.59773 24.2895 2.38857 24.2017 2.20207ZM16.5695 3.8132C17.9414 3.8132 19.3128 3.8132 20.6838 3.8132C21.1631 3.8132 21.489 4.11238 21.4858 4.5443C21.4826 4.97622 21.1593 5.26568 20.6749 5.26633C19.993 5.26633 19.3113 5.26633 18.6298 5.26633C17.9399 5.26633 17.2505 5.26633 16.5606 5.26633C16.0972 5.26633 15.7752 4.9691 15.7707 4.54689C15.7663 4.12468 16.0921 3.8132 16.5695 3.8132ZM9.34085 3.8132C9.52849 3.81621 9.70761 3.89338 9.8403 4.02838C9.973 4.16339 10.0489 4.34563 10.0518 4.53653C10.0504 4.72746 9.97597 4.91032 9.84434 5.04642C9.71271 5.18251 9.5342 5.26115 9.34659 5.26568C9.25175 5.26594 9.15779 5.24718 9.07008 5.21047C8.98237 5.17376 8.90263 5.11983 8.83542 5.05175C8.76821 4.98367 8.71484 4.90278 8.67838 4.81371C8.64191 4.72464 8.62305 4.62913 8.62289 4.53264C8.6267 4.34115 8.7039 4.15875 8.83803 4.02435C8.97216 3.88995 9.15259 3.81418 9.34085 3.8132V3.8132ZM6.49573 3.8132C6.68388 3.81878 6.86242 3.89898 6.99324 4.03667C7.12406 4.17436 7.19678 4.35863 7.19587 4.55013C7.19107 4.74105 7.11335 4.92257 6.97919 5.05616C6.84503 5.18975 6.66499 5.2649 6.47727 5.26568C6.38235 5.264 6.28868 5.24326 6.20165 5.20467C6.11462 5.16607 6.03595 5.11036 5.97013 5.04075C5.90431 4.97114 5.85264 4.88899 5.81811 4.79902C5.78357 4.70905 5.76682 4.61302 5.76885 4.51646C5.77707 4.32635 5.8574 4.14688 5.99294 4.01574C6.12848 3.88461 6.30869 3.81201 6.49573 3.8132V3.8132ZM3.63532 3.8132C3.82314 3.81877 4.00141 3.8987 4.13218 4.03597C4.26294 4.17324 4.33587 4.35702 4.33546 4.54819C4.33116 4.73912 4.25392 4.92083 4.12012 5.05479C3.98632 5.18874 3.80648 5.26439 3.61877 5.26568C3.43108 5.26284 3.25188 5.18572 3.11915 5.05068C2.98642 4.91564 2.91061 4.73331 2.90781 4.54236C2.90848 4.44587 2.92783 4.35046 2.96476 4.26158C3.00169 4.1727 3.05547 4.0921 3.12303 4.02439C3.1906 3.95667 3.27063 3.90316 3.35853 3.86693C3.44643 3.83069 3.54048 3.81244 3.63532 3.8132V3.8132ZM22.9637 8.44909C22.9637 13.4003 22.9637 18.3516 22.9637 23.3029C22.9637 23.8993 22.6938 24.1706 22.1025 24.1706H2.28723C1.69784 24.1706 1.42924 23.898 1.42924 23.2996C1.42924 18.3484 1.42924 13.3973 1.42924 8.4465V8.1836H22.9637V8.44909Z" fill="#2196F3"/>
</svg>
