<svg width="16" height="22" viewBox="0 0 16 22" fill="none" xmlns="http://www.w3.org/2000/svg">
<path d="M0 9.47494C0 5.44922 1.8935 2.54049 4.93596 1.32553C9.5737 -0.526968 14.88 2.04798 15.8428 7.25012C16.3212 9.8329 15.7038 12.1629 14.0436 14.2002C12.2819 16.363 10.4972 18.5068 8.721 20.6585C8.24779 21.232 7.74704 21.234 7.27908 20.6657C5.49852 18.5084 3.71819 16.3502 1.93807 14.1911C0.652141 12.6293 0.0170409 10.8343 0 9.47494ZM8.00266 5.43224C7.16834 5.43535 6.36915 5.7674 5.77968 6.35586C5.19022 6.94431 4.85838 7.74135 4.85665 8.57286C4.86124 10.2817 6.28087 11.6893 8.00266 11.6913C9.70674 11.6913 11.1441 10.2607 11.1375 8.56175C11.1297 6.84382 9.7133 5.42832 8.00266 5.43224Z" fill="white"/>
</svg>
