<svg width="22" height="26" viewBox="0 0 22 26" fill="none" xmlns="http://www.w3.org/2000/svg">
<path d="M10.965 25.6768H10.4714C10.3307 25.6331 10.1885 25.595 10.0502 25.5459C8.68078 25.0559 7.37401 24.4325 6.16055 23.6195C4.34874 22.4064 2.90226 20.8517 1.86801 18.9053C0.70539 16.7126 0.192457 14.3415 0.0675556 11.884C-0.0282182 10.0003 0.00436351 8.10858 0.00930031 6.22086C0.0132497 4.77097 1.00802 3.67566 2.43129 3.49611C2.96101 3.42941 3.49517 3.38929 4.02193 3.30403C5.99665 2.98557 7.74082 2.16659 9.22186 0.796438C9.58274 0.461423 9.94707 0.149479 10.422 -0.000976562H11.0144C11.5545 0.157002 11.945 0.53966 12.3404 0.913793L12.3587 0.930844C13.4606 1.90335 14.7593 2.61814 16.163 3.02468C17.1173 3.30453 18.0962 3.40233 19.0757 3.50514C20.339 3.63754 21.3866 4.77699 21.4241 6.0684C21.4863 8.19033 21.5357 10.3123 21.3313 12.4307C21.1906 13.8886 20.9482 15.3254 20.4871 16.7176C19.5694 19.491 17.9501 21.7328 15.577 23.4039C14.1625 24.3955 12.6072 25.1619 10.965 25.6768ZM17.0175 12.8314C16.9993 9.30219 14.174 6.43652 10.7182 6.43852C7.26244 6.44053 4.43415 9.30571 4.41885 12.8324C4.40354 16.343 7.29256 19.2724 10.731 19.2373C14.2199 19.2017 17.0373 16.3325 17.0175 12.8314Z" fill="white"/>
<path d="M15.5302 12.87C15.5015 15.6198 13.3027 17.7653 10.6808 17.7222C7.98625 17.6776 5.86639 15.4759 5.90293 12.8193C5.93995 10.0981 8.12103 7.90446 10.741 7.9491C13.4281 7.99524 15.586 10.213 15.5302 12.87ZM9.58923 13.845C9.33696 13.5766 9.10888 13.3254 8.87142 13.0846C8.51301 12.7215 8.07117 12.7 7.75817 13.022C7.45407 13.3344 7.4827 13.7953 7.83321 14.1549C8.2089 14.5406 8.58805 14.9232 8.96621 15.3084C9.41052 15.7598 9.7951 15.7598 10.2384 15.3084C11.3153 14.2167 12.3902 13.1243 13.4631 12.031C13.5293 11.9691 13.5905 11.902 13.6463 11.8303C13.7167 11.7346 13.7634 11.6231 13.7823 11.5052C13.8013 11.3873 13.7921 11.2665 13.7554 11.153C13.7186 11.0395 13.6556 10.9366 13.5714 10.8532C13.4873 10.7697 13.3846 10.708 13.2721 10.6733C12.9403 10.566 12.6826 10.6949 12.4526 10.9306C11.5136 11.885 10.5726 12.8434 9.58923 13.845Z" fill="white"/>
</svg>
