<svg width="32" height="26" viewBox="0 0 32 26" fill="none" xmlns="http://www.w3.org/2000/svg">
<path d="M0 20.151V1.93372C0.0125255 1.91789 0.023201 1.90069 0.0318197 1.88244C0.413656 0.574467 1.18223 -0.000976562 2.55047 -0.000976562C11.3077 -0.000976562 20.0622 -0.000976562 28.814 -0.000976562C30.3169 -0.000976562 31.2755 0.958641 31.2755 2.45626C31.2755 8.18249 31.2755 13.9087 31.2755 19.6349C31.2755 21.1537 30.3226 22.0995 28.7936 22.0995H19.0054C19.2754 23.1373 19.8098 23.9862 20.5156 24.7358C21.0002 25.2502 20.9725 25.5978 20.4054 25.999H10.8734C10.3063 25.6002 10.2867 25.26 10.7575 24.735C11.049 24.412 11.3176 24.069 11.5612 23.7086C11.8941 23.2241 12.1268 22.6781 12.2457 22.1028H11.8908C8.70827 22.1028 5.5263 22.1028 2.34487 22.1028C1.22465 22.1028 0.354913 21.4256 0.0652715 20.3512C0.0448742 20.282 0.0212131 20.2169 0 20.151ZM2.62554 16.8855H28.6451V2.628H2.62554V16.8855Z" fill="white"/>
<path d="M17.5915 4.97454C17.4797 5.46696 17.3467 6.05055 17.2154 6.6325C16.6899 8.90444 16.1637 11.1761 15.6366 13.4475C15.5134 13.9757 15.1471 14.2964 14.669 14.3005C14.4478 14.3053 14.232 14.233 14.0586 14.096C13.8852 13.959 13.7652 13.7659 13.7193 13.55C13.6846 13.3924 13.6846 13.2291 13.7193 13.0715C14.3606 10.2873 15.0037 7.5015 15.6488 4.71408C15.7712 4.18666 16.22 3.85458 16.7136 3.91074C17.2178 3.96853 17.5915 4.38119 17.5915 4.97454Z" fill="white"/>
<path d="M20.5394 9.10351C20.0858 8.57446 19.642 8.06006 19.2022 7.54322C18.7828 7.04998 18.8016 6.45907 19.243 6.08466C19.6844 5.71026 20.2612 5.78839 20.6732 6.2621C21.2933 6.9751 21.9093 7.69162 22.5212 8.41167C22.9071 8.86666 22.9071 9.33385 22.5212 9.78965C21.9044 10.5184 21.2819 11.2425 20.6537 11.962C20.2457 12.4308 19.6566 12.4813 19.2226 12.1012C18.8146 11.7398 18.791 11.1448 19.1818 10.685C19.6281 10.1592 20.0801 9.63826 20.5394 9.10351Z" fill="white"/>
<path d="M10.7384 9.10362C11.2059 9.64813 11.6766 10.1796 12.1254 10.7266C12.6149 11.3175 12.3546 12.1314 11.6293 12.3186C11.4618 12.3688 11.2832 12.3687 11.1158 12.3183C10.9484 12.268 10.7995 12.1696 10.6878 12.0354C10.0106 11.2646 9.3391 10.4889 8.68231 9.70022C8.53639 9.53229 8.45667 9.31715 8.45802 9.09491C8.45938 8.87267 8.5417 8.65851 8.68965 8.49236C9.34726 7.70502 10.0166 6.92745 10.6976 6.15965C10.7815 6.0668 10.8831 5.9915 10.9965 5.93811C11.1098 5.88472 11.2327 5.85431 11.3579 5.84863C11.4831 5.84295 11.6082 5.86213 11.7259 5.90504C11.8437 5.94795 11.9517 6.01374 12.0438 6.09861C12.2347 6.26359 12.3531 6.49678 12.3734 6.74795C12.3937 6.99913 12.3143 7.24822 12.1523 7.44158C11.6987 7.99994 11.2214 8.53957 10.7384 9.10362Z" fill="white"/>
</svg>
