<svg width="22" height="27" viewBox="0 0 22 27" fill="none" xmlns="http://www.w3.org/2000/svg">
<path d="M20.6422 1.22796C20.4613 1.14031 20.2754 1.06386 20.0855 0.999049H19.5508C18.9585 1.15605 18.4906 1.46941 18.2366 2.06313C18.2188 2.08726 18.1958 2.10694 18.1694 2.12066C18.143 2.13438 18.1139 2.14178 18.0843 2.14229C16.2235 2.14229 14.3629 2.14075 12.5025 2.13767C12.496 2.13767 12.4889 2.13041 12.4558 2.1126C12.4306 1.70689 12.566 1.20619 12.0165 0.999049H9.489C8.95111 1.20619 9.06387 1.6871 9.05156 2.13239C8.96277 2.13767 8.88565 2.14559 8.80788 2.14559C7.0512 2.14559 5.29408 2.14559 3.53653 2.14559C3.37581 2.14559 3.28119 2.11524 3.20407 1.94768C3.00965 1.51822 2.66682 1.23522 2.22225 1.08547C2.14772 1.0604 2.07579 1.02676 2.00321 0.99707H1.41995C1.35514 1.02148 1.28645 1.04787 1.2184 1.06898C0.364251 1.33285 -0.150308 2.2109 0.039575 3.07575C0.206128 3.83439 0.771885 4.35026 1.54308 4.44526C2.2054 4.52772 2.89624 4.1385 3.21314 3.48739C3.27795 3.34952 3.35183 3.29542 3.50412 3.2974C4.08738 3.30664 4.67064 3.3007 5.2539 3.30202C5.31696 3.30671 5.37972 3.31508 5.44184 3.32709C5.42836 3.34789 5.41295 3.36733 5.39583 3.38514C2.89884 5.16036 1.74528 7.75029 1.14517 10.6707C1.0525 11.122 1.45883 11.4689 1.88332 11.3304C2.14708 11.2427 2.2417 11.0256 2.289 10.7657C2.56054 9.26757 3.07835 7.8631 3.89426 6.58396C4.82229 5.12869 6.04195 4.03823 7.71331 3.55402C8.14168 3.43 8.5869 3.36799 9.0548 3.27101C9.0548 3.5085 9.0548 3.6721 9.0548 3.8357C9.06452 4.20843 9.28227 4.44855 9.64259 4.45251C10.3792 4.46087 11.1163 4.46087 11.8538 4.45251C12.2161 4.44855 12.437 4.21239 12.45 3.84362C12.4552 3.67276 12.45 3.50124 12.45 3.32181C12.5252 3.32181 12.5725 3.31851 12.6192 3.32181C12.684 3.32709 12.7488 3.33566 12.8136 3.34556C14.4298 3.59954 15.7046 4.45185 16.7408 5.69998C17.9806 7.19483 18.7498 8.93245 19.2216 10.8152C19.324 11.2255 19.5962 11.4267 19.9591 11.3429C20.2832 11.2704 20.464 10.9471 20.337 10.5632C20.0414 9.66734 19.7667 8.75895 19.3882 7.89872C18.6423 6.20068 17.6118 4.70451 16.1278 3.57249C16.0286 3.49663 15.9288 3.42274 15.829 3.34819C15.8355 3.3317 15.8413 3.31521 15.8472 3.29938H16.0818C16.6974 3.29938 17.3131 3.30532 17.9287 3.29542C18.1167 3.29542 18.2243 3.33632 18.3176 3.52763C18.4735 3.83812 18.7197 4.09205 19.0227 4.25476C19.3256 4.41746 19.6706 4.48099 20.0103 4.43668C20.788 4.31794 21.3499 3.76842 21.4834 3.00252C21.5384 2.65465 21.4872 2.29798 21.3368 1.98065C21.1864 1.66332 20.9439 1.4006 20.6422 1.22796Z" fill="white"/>
<path d="M14.7096 22.5821C14.7096 22.4951 14.7018 22.408 14.6973 22.3183H6.79543V22.5821C6.79543 23.5789 6.80451 24.5757 6.79025 25.5718C6.78507 25.9221 6.88875 26.1787 7.20436 26.3318H14.3013C14.6182 26.1794 14.7193 25.9208 14.7148 25.5725C14.7018 24.575 14.7102 23.5783 14.7096 22.5821Z" fill="white"/>
<path d="M11.4202 6.06425L11.4092 6.0682C11.3835 6.07901 11.3616 6.09731 11.3462 6.12079C11.3307 6.14427 11.3224 6.17188 11.3224 6.20014C11.3224 9.04076 11.3209 11.8814 11.3178 14.722C11.3178 14.8849 11.3878 14.943 11.5122 15.0083C11.7646 15.1389 11.9808 15.3319 12.141 15.5695C12.3012 15.8071 12.4003 16.0819 12.4292 16.3686C12.4582 16.6553 12.4161 16.9448 12.3067 17.2106C12.1974 17.4765 12.0243 17.7101 11.8033 17.8903C11.5823 18.0705 11.3204 18.1913 11.0417 18.2419C10.763 18.2924 10.4762 18.271 10.2077 18.1796C9.9392 18.0882 9.69748 17.9297 9.50467 17.7187C9.31186 17.5076 9.17412 17.2508 9.10404 16.9715C9.01008 16.5977 9.04376 16.2025 9.19956 15.8508C9.35536 15.4991 9.62402 15.2118 9.96143 15.036C10.1319 14.9476 10.1876 14.8552 10.1876 14.6639C10.1811 11.7969 10.1794 8.92993 10.1824 6.06293C10.1826 6.0474 10.1797 6.032 10.1739 6.01766C10.168 6.00331 10.1594 5.99032 10.1485 5.97947C10.1376 5.96861 10.1246 5.96012 10.1104 5.95451C10.0962 5.9489 10.081 5.94629 10.0658 5.94682C10.045 5.94835 10.0251 5.95578 10.0082 5.96826C9.99138 5.98073 9.97831 5.99776 9.9705 6.01741C8.56722 9.4082 7.16308 12.7983 5.75808 16.1878C5.62069 16.5177 5.65504 16.7776 5.89806 17.0414C6.59382 17.7944 7.1324 18.6831 7.48128 19.6538C7.63422 20.0793 7.74699 20.52 7.87012 20.96C7.88475 21.0114 7.91542 21.0566 7.95751 21.0888C7.9996 21.1209 8.05081 21.1382 8.10342 21.1381H13.4176C13.4732 21.138 13.527 21.1182 13.5698 21.0821C13.6126 21.046 13.6418 20.9958 13.6521 20.9402C13.9319 19.484 14.6052 18.1361 15.5963 17.048C15.8439 16.7736 15.8783 16.5111 15.737 16.1726C14.3488 12.8333 12.9663 9.49088 11.5894 6.14539C11.5763 6.11273 11.5517 6.08626 11.5203 6.07122C11.489 6.05619 11.4533 6.0537 11.4202 6.06425Z" fill="white"/>
<path d="M10.7474 15.9761C10.6003 15.9759 10.4591 16.0348 10.3544 16.1398C10.2497 16.2449 10.1895 16.3878 10.1876 16.5374C10.1843 16.6144 10.1966 16.6914 10.2231 16.7636C10.2495 16.8358 10.2899 16.9019 10.3419 16.9579C10.3939 17.0139 10.4564 17.0587 10.5257 17.0897C10.5951 17.1206 10.6698 17.1371 10.7455 17.138C10.8212 17.139 10.8963 17.1245 10.9664 17.0953C11.0365 17.0662 11.1001 17.023 11.1535 16.9683C11.2068 16.9137 11.2489 16.8486 11.2771 16.7771C11.3053 16.7056 11.3186 16.629 11.3172 16.552C11.3182 16.4757 11.3045 16.4 11.2761 16.3294C11.2478 16.2588 11.2057 16.1947 11.1525 16.1409C11.0993 16.0872 11.036 16.0449 10.9664 16.0166C10.8968 15.9883 10.8223 15.9745 10.7474 15.9761Z" fill="white"/>
</svg>
