<svg width="16" height="22" viewBox="0 0 16 22" fill="none" xmlns="http://www.w3.org/2000/svg">
<path d="M0 9.74829C0 5.59679 1.8935 2.59717 4.93596 1.34424C9.5737 -0.566136 14.88 2.08926 15.8428 7.45395C16.3212 10.1174 15.7038 12.5202 14.0436 14.6212C12.2819 16.8516 10.4972 19.0624 8.721 21.2813C8.24779 21.8727 7.74704 21.8748 7.27908 21.2887C5.49852 19.064 3.71819 16.8383 1.93807 14.6118C0.652141 13.0012 0.0170409 11.1501 0 9.74829ZM8.00266 5.57928C7.16834 5.58248 6.36915 5.9249 5.77968 6.53175C5.19022 7.13859 4.85838 7.96053 4.85665 8.81803C4.86124 10.5802 6.28087 12.0319 8.00266 12.0339C9.70674 12.0339 11.1441 10.5587 11.1375 8.80657C11.1297 7.03496 9.7133 5.57524 8.00266 5.57928Z" fill="white"/>
</svg>
