<svg width="462" height="119" viewBox="0 0 462 119" fill="none" xmlns="http://www.w3.org/2000/svg">
<path d="M199.896 116.75H162.27L185.786 2.04954H223.415L199.896 116.75ZM130.617 2.04954L94.7466 80.9414L90.5019 63.9529L90.5058 63.9591L77.8454 12.377C77.8454 12.377 76.3145 2.04954 59.997 2.04954H0.695843L0 3.99168C0 3.99168 18.1344 6.98622 39.3576 17.102L72.0467 116.753H111.25L171.111 2.04954H130.617V2.04954ZM426.563 116.75H461.111L430.989 2.04647H400.743C386.776 2.04647 383.374 10.5944 383.374 10.5944L327.258 116.75H366.48L374.324 99.7124H422.156L426.563 116.75ZM385.16 76.1765L404.93 33.2528L416.051 76.1765H385.16ZM330.2 29.6324L335.57 5.00111C335.57 5.00111 319.001 0 301.729 0C283.057 0 238.716 6.4769 238.716 37.9717C238.716 67.6041 290.757 67.9722 290.757 83.5371C290.757 99.1019 244.078 96.3129 228.673 86.4978L223.079 112.252C223.079 112.252 239.88 118.729 265.549 118.729C291.225 118.729 329.96 108.178 329.96 79.4595C329.96 49.6368 277.451 46.8602 277.451 33.8941C277.455 20.9249 314.099 22.5909 330.2 29.6324V29.6324Z" fill="#2566AF"/>
<path d="M90.5058 63.9564L77.8453 12.3743C77.8453 12.3743 76.3145 2.04688 59.997 2.04688H0.695843L0 3.98902C0 3.98902 28.5024 8.67718 55.8413 26.2425C81.9817 43.0315 90.5058 63.9564 90.5058 63.9564Z" fill="#E6A540"/>
</svg>
