<svg width="25" height="25" viewBox="0 0 25 25" fill="none" xmlns="http://www.w3.org/2000/svg">
<path d="M15.0546 10.2428C15.0303 10.3451 14.9995 10.4457 14.9623 10.5439C13.557 13.8866 12.1499 17.2287 10.7411 20.5701C10.5502 21.015 10.1447 21.1995 9.7609 21.0234C9.37709 20.8473 9.24534 20.4406 9.42992 19.999C10.8391 16.6493 12.25 13.3002 13.6626 9.9514C13.8179 9.58359 14.1362 9.39903 14.4735 9.46703C14.8108 9.53502 15.0514 9.83225 15.0546 10.2428Z" fill="white"/>
<path d="M5.4833 15.273C6.43804 16.0501 7.35968 16.8026 8.28387 17.5512C8.52638 17.7454 8.66577 17.987 8.60913 18.3062C8.51238 18.8586 7.89689 19.0865 7.44561 18.7304C6.90587 18.3056 6.37886 17.8652 5.84611 17.4314C5.21408 16.9172 4.5814 16.405 3.95127 15.8882C3.50573 15.525 3.50572 15.0205 3.94363 14.6579C5.09398 13.7176 6.24583 12.7795 7.39915 11.8436C7.76704 11.545 8.19349 11.5696 8.45891 11.898C8.72432 12.2263 8.66514 12.675 8.29088 12.9813C7.43713 13.679 6.58232 14.3745 5.72645 15.0678C5.65389 15.1306 5.58196 15.1908 5.4833 15.273Z" fill="white"/>
<path d="M18.9086 15.2686C18.1843 14.6774 17.4854 14.1082 16.7865 13.539C16.5453 13.3447 16.3009 13.1504 16.0628 12.9484C15.7325 12.67 15.6771 12.2361 15.9234 11.9123C16.1698 11.5885 16.6058 11.5328 16.9418 11.8042C18.13 12.7617 19.3132 13.7246 20.4916 14.6929C20.8773 15.0096 20.8779 15.5263 20.4916 15.8437C19.3136 16.8124 18.1304 17.7751 16.9418 18.7318C16.6045 19.0038 16.1698 18.9474 15.9234 18.6249C15.6771 18.3024 15.7287 17.866 16.0622 17.5927C16.9323 16.8804 17.8075 16.1681 18.6807 15.4558C18.7488 15.4078 18.8138 15.3489 18.9086 15.2686Z" fill="white"/>
<path d="M24.2017 1.29875C23.8045 0.456921 23.1375 0.0120466 22.2177 0.00362832C20.6781 -0.00673266 19.1378 0.00362832 17.5981 0.00362832C12.4773 0.00362832 7.35711 0.00362832 2.23758 0.00362832C1.174 0.00362832 0.333836 0.63241 0.0779661 1.62642C0.02725 1.82958 0.0020184 2.03846 0.00286422 2.24808C-0.00095474 8.99178 -0.00095474 15.7355 0.00286422 22.4792C0.00286422 23.7801 0.933418 24.723 2.21531 24.7236C8.86709 24.7236 15.5193 24.7236 22.1719 24.7236C23.2896 24.7236 24.1062 24.0541 24.3544 22.9467C24.3656 22.9083 24.3792 22.8706 24.3952 22.834V1.89321C24.3309 1.69441 24.2895 1.48525 24.2017 1.29875ZM16.5695 2.90988C17.9414 2.90988 19.3128 2.90988 20.6838 2.90988C21.1631 2.90988 21.489 3.20906 21.4858 3.64098C21.4826 4.0729 21.1593 4.36236 20.6749 4.36301C19.993 4.36301 19.3113 4.36301 18.6298 4.36301C17.9399 4.36301 17.2505 4.36301 16.5606 4.36301C16.0972 4.36301 15.7752 4.06578 15.7707 3.64357C15.7663 3.22136 16.0921 2.90988 16.5695 2.90988ZM9.34085 2.90988C9.52849 2.91289 9.70761 2.99006 9.8403 3.12506C9.973 3.26007 10.0489 3.44231 10.0518 3.63321C10.0504 3.82414 9.97597 4.007 9.84434 4.1431C9.71271 4.27919 9.5342 4.35783 9.34659 4.36236C9.25175 4.36262 9.15779 4.34386 9.07008 4.30715C8.98237 4.27044 8.90263 4.21651 8.83542 4.14843C8.76821 4.08035 8.71484 3.99946 8.67838 3.91039C8.64191 3.82132 8.62305 3.72581 8.62289 3.62932C8.6267 3.43783 8.7039 3.25543 8.83803 3.12103C8.97216 2.98663 9.15259 2.91086 9.34085 2.90988V2.90988ZM6.49573 2.90988C6.68388 2.91546 6.86242 2.99566 6.99324 3.13335C7.12406 3.27104 7.19678 3.45531 7.19587 3.64681C7.19107 3.83773 7.11335 4.01925 6.97919 4.15284C6.84503 4.28643 6.66499 4.36158 6.47727 4.36236C6.38235 4.36068 6.28868 4.33994 6.20165 4.30134C6.11462 4.26275 6.03595 4.20704 5.97013 4.13743C5.90431 4.06782 5.85264 3.98567 5.81811 3.8957C5.78357 3.80573 5.76682 3.7097 5.76885 3.61314C5.77707 3.42303 5.8574 3.24356 5.99294 3.11242C6.12848 2.98129 6.30869 2.90869 6.49573 2.90988V2.90988ZM3.63532 2.90988C3.82314 2.91545 4.00141 2.99538 4.13218 3.13265C4.26294 3.26992 4.33587 3.4537 4.33546 3.64487C4.33116 3.8358 4.25392 4.01751 4.12012 4.15147C3.98632 4.28542 3.80648 4.36107 3.61877 4.36236C3.43108 4.35952 3.25188 4.2824 3.11915 4.14736C2.98642 4.01232 2.91061 3.82999 2.90781 3.63904C2.90848 3.54255 2.92783 3.44714 2.96476 3.35826C3.00169 3.26938 3.05547 3.18878 3.12303 3.12107C3.1906 3.05335 3.27063 2.99984 3.35853 2.96361C3.44643 2.92737 3.54048 2.90912 3.63532 2.90988V2.90988ZM22.9637 7.54577C22.9637 12.497 22.9637 17.4483 22.9637 22.3995C22.9637 22.9959 22.6938 23.2673 22.1025 23.2673H2.28723C1.69784 23.2673 1.42924 22.9946 1.42924 22.3963C1.42924 17.445 1.42924 12.494 1.42924 7.54318V7.28027H22.9637V7.54577Z" fill="white"/>
</svg>
