<svg width="8" height="8" viewBox="0 0 8 8" fill="none" xmlns="http://www.w3.org/2000/svg">
<mask id="mask0_47_9327" style="mask-type:alpha" maskUnits="userSpaceOnUse" x="0" y="-1" width="8" height="9">
<path d="M4.56311 3.99951L7.88335 7.31975C8.03883 7.47525 8.03884 7.72736 7.88337 7.88289C7.80775 7.95852 7.70666 7.99951 7.6018 7.99951C7.49694 7.99951 7.39585 7.95852 7.32023 7.88288L3.99998 4.56263L0.679786 7.88286C0.60414 7.95852 0.503067 7.99951 0.398205 7.99951C0.293329 7.99951 0.192242 7.95853 0.116631 7.88288C-0.0388757 7.72737 -0.0388757 7.47525 0.116631 7.31974L3.43686 3.99949L0.116631 0.679262C-0.0388764 0.523754 -0.0388764 0.271631 0.116627 0.116146C0.27212 -0.0393658 0.52426 -0.0393658 0.679749 0.116142L3.99998 3.43638L7.32021 0.116143C7.47572 -0.0393646 7.72784 -0.0393646 7.88335 0.116146C8.03884 0.271653 8.03884 0.523771 7.88335 0.679262L4.56311 3.99951Z" fill="white"/>
</mask>
<g mask="url(#mask0_47_9327)">
<path d="M4.56311 3.99951L7.88335 7.31975C8.03883 7.47525 8.03884 7.72736 7.88337 7.88289C7.80775 7.95852 7.70666 7.99951 7.6018 7.99951C7.49694 7.99951 7.39585 7.95852 7.32023 7.88288L3.99998 4.56263L0.679786 7.88286C0.60414 7.95852 0.503067 7.99951 0.398205 7.99951C0.293329 7.99951 0.192242 7.95853 0.116631 7.88288C-0.0388757 7.72737 -0.0388757 7.47525 0.116631 7.31974L3.43686 3.99949L0.116631 0.679262C-0.0388764 0.523754 -0.0388764 0.271631 0.116627 0.116146C0.27212 -0.0393658 0.52426 -0.0393658 0.679749 0.116142L3.99998 3.43638L7.32021 0.116143C7.47572 -0.0393646 7.72784 -0.0393646 7.88335 0.116146C8.03884 0.271653 8.03884 0.523771 7.88335 0.679262L4.56311 3.99951Z" fill="black"/>
<path d="M8.20957 -1.60059H-0.601079C-1.15336 -1.60059 -1.60107 -1.15287 -1.60107 -0.60059V8.59937C-1.60107 9.15165 -1.15336 9.59936 -0.601079 9.59936H8.20957C8.76186 9.59936 9.20957 9.15165 9.20957 8.59937V-0.60059C9.20957 -1.15287 8.76186 -1.60059 8.20957 -1.60059Z" fill="#3F4C5A"/>
</g>
</svg>
