<svg width="15" height="15" viewBox="0 0 15 15" fill="none" xmlns="http://www.w3.org/2000/svg">
<path d="M11.3348 2.20557H2.273C1.51223 2.20557 0.895508 2.81284 0.895508 3.56194V12.2824C0.895508 13.0315 1.51223 13.6388 2.273 13.6388H11.3348C12.0955 13.6388 12.7122 13.0315 12.7122 12.2824V3.56194C12.7122 2.81284 12.0955 2.20557 11.3348 2.20557Z" fill="#EAF5FE" stroke="#457EFF"/>
<path d="M3.09011 4.28704C3.4705 4.28704 3.77886 3.9834 3.77886 3.60885C3.77886 3.2343 3.4705 2.93066 3.09011 2.93066C2.70973 2.93066 2.40137 3.2343 2.40137 3.60885C2.40137 3.9834 2.70973 4.28704 3.09011 4.28704Z" fill="#457EFF"/>
<path d="M10.5984 4.28704C10.9788 4.28704 11.2872 3.9834 11.2872 3.60885C11.2872 3.2343 10.9788 2.93066 10.5984 2.93066C10.218 2.93066 9.90967 3.2343 9.90967 3.60885C9.90967 3.9834 10.218 4.28704 10.5984 4.28704Z" fill="#457EFF"/>
<path d="M3.08984 1.28223V3.31679" stroke="#457EFF" stroke-linecap="round"/>
<path d="M10.5981 1.28223V3.31679" stroke="#457EFF" stroke-linecap="round"/>
<path d="M1.26709 5.32861H12.287" stroke="#457EFF" stroke-linecap="round"/>
<path d="M10.2099 14.1449C12.1178 14.1449 13.6644 12.622 13.6644 10.7434C13.6644 8.86473 12.1178 7.3418 10.2099 7.3418C8.30201 7.3418 6.75537 8.86473 6.75537 10.7434C6.75537 12.622 8.30201 14.1449 10.2099 14.1449Z" fill="#EAF5FE" stroke="#457EFF"/>
<path d="M10.2101 8.57178V10.8932H8.43945" stroke="#457EFF" stroke-linecap="round"/>
</svg>
