<svg width="15" height="15" viewBox="0 0 15 15" fill="none" xmlns="http://www.w3.org/2000/svg">
<path d="M12.093 1.35449H2.05101C1.26318 1.35449 0.624512 1.98337 0.624512 2.75912V4.78834C0.624512 5.5641 1.26318 6.19297 2.05101 6.19297H12.093C12.8808 6.19297 13.5195 5.5641 13.5195 4.78834V2.75912C13.5195 1.98337 12.8808 1.35449 12.093 1.35449Z" fill="#EAF5FE" stroke="#457EFF"/>
<path d="M2.49365 2.69971V4.65131" stroke="#457EFF" stroke-linecap="round"/>
<path d="M12.093 7.37744H2.05101C1.26318 7.37744 0.624512 8.00631 0.624512 8.78207V12.869C0.624512 13.6448 1.26318 14.2737 2.05101 14.2737H12.093C12.8808 14.2737 13.5195 13.6448 13.5195 12.869V8.78207C13.5195 8.00631 12.8808 7.37744 12.093 7.37744Z" fill="#EAF5FE" stroke="#457EFF"/>
<path d="M10.3911 3.40332L11.1044 4.10563L11.8176 3.40332" stroke="#457EFF" stroke-linecap="round" stroke-linejoin="round"/>
<path d="M2.43604 9.45117H11.8175" stroke="#457EFF" stroke-linecap="round"/>
<path d="M2.43604 11.7158H7.12679" stroke="#457EFF" stroke-linecap="round"/>
</svg>
