<svg width="17" height="17" viewBox="0 0 17 17" fill="none" xmlns="http://www.w3.org/2000/svg">
<path fill-rule="evenodd" clip-rule="evenodd" d="M4.85562 11.1925H3.27775C2.01978 11.1925 1 10.1727 1 8.91477V3.60002C1 2.34205 2.01978 1.32227 3.27775 1.32227H13.9073C15.1652 1.32227 16.185 2.34205 16.185 3.60002V8.91477C16.185 10.1727 15.1652 11.1925 13.9073 11.1925H12.3788" fill="#EAF5FE"/>
<path d="M4.85562 11.1925H3.27775C2.01978 11.1925 1 10.1727 1 8.91477V3.60002C1 2.34205 2.01978 1.32227 3.27775 1.32227H13.9073C15.1652 1.32227 16.185 2.34205 16.185 3.60002V8.91477C16.185 10.1727 15.1652 11.1925 13.9073 11.1925H12.3788" stroke="#457EFF"/>
<path fill-rule="evenodd" clip-rule="evenodd" d="M5.45677 13.281L4.93604 11.3255L5.05201 11.0038L5.87975 10.6348L6.50447 11.1036L6.69415 11.3255C6.7636 10.4859 6.79832 10.0091 6.79832 9.89514C6.79832 9.78113 6.7636 9.26287 6.69415 8.34037L6.79832 7.37388L7.12662 7.19613L7.88868 7.07227L8.16893 7.70019V8.90113C8.16893 9.37329 8.16893 9.60937 8.16893 9.60937C8.16893 9.60937 8.34522 9.55583 8.69781 9.44875L9.60009 9.60937L9.81992 9.89514L10.5004 9.60937L10.8905 9.74324L11.2419 10.0853L11.8571 10.1766H12.1451C12.2268 10.2361 12.2677 10.3888 12.2677 10.6348C12.2677 10.8808 12.2677 11.1904 12.2677 11.5636C12.186 11.8684 12.1451 12.0981 12.1451 12.2526C12.1451 12.4072 12.1451 12.5747 12.1451 12.7552L5.45677 13.281Z" fill="white"/>
<path d="M11.5445 9.57626C11.3682 9.57626 11.202 9.61618 11.056 9.68668C10.868 9.42949 10.5473 9.25984 10.184 9.25984C9.99634 9.25984 9.82008 9.3051 9.66754 9.38433C9.47664 9.14768 9.16937 8.99384 8.82344 8.99384C8.71454 8.99384 8.60947 9.00904 8.51062 9.03734C8.51062 8.84595 8.51062 8.64435 8.51062 8.43254C8.51062 8.11482 8.67902 6.76367 7.37053 6.76367C6.35772 6.76367 6.41524 7.61357 6.41524 8.55611C6.41524 9.18447 6.41524 9.93804 6.41524 10.8168C6.3584 10.7649 6.29458 10.7185 6.22453 10.6787C5.99879 10.5507 5.7341 10.5062 5.47459 10.5518C5.19545 10.562 4.94502 10.6732 4.78235 10.8604C4.61144 11.0571 4.55211 11.3207 4.61938 11.5838L5.10234 13.4705C5.37775 15.0446 6.7228 16.2223 6.78012 16.2719C6.84835 16.3308 6.93878 16.3637 7.03275 16.3637H11.1657C11.2894 16.3637 11.4047 16.3068 11.4728 16.2125C12.2047 15.1959 12.5918 14.0157 12.5919 12.7994L12.5923 10.5327C12.5923 10.0053 12.1222 9.57626 11.5445 9.57626ZM7.1871 15.6928C6.89093 15.4052 6.01822 14.4766 5.82616 13.3543C5.82473 13.346 5.823 13.3378 5.8209 13.3298L5.33497 11.4312C5.3188 11.3678 5.32693 11.3131 5.35803 11.2774C5.38904 11.2417 5.44224 11.223 5.51325 11.2168C5.54894 11.2137 5.56377 11.2099 5.59688 11.208C5.68023 11.2034 5.76568 11.2084 5.83669 11.2487C5.90769 11.2889 5.95716 11.352 5.97621 11.4263L6.39534 13.0639C6.43036 13.2006 6.55495 13.303 6.70749 13.3204L6.73696 13.3238C6.84155 13.3357 6.94672 13.3061 7.02576 13.2424C7.1048 13.1788 7.15007 13.0871 7.15007 12.9909V7.65952C7.15007 7.50201 7.29035 7.37395 7.46288 7.37395C7.63532 7.37395 7.7757 7.50201 7.7757 7.65952V10.8052C7.7757 10.9904 7.9402 11.1407 8.14316 11.1407C8.34612 11.1407 8.51062 10.9904 8.51062 10.8052V9.95033C8.51062 9.79282 8.65091 9.66475 8.82344 9.66475C8.99588 9.66475 9.13626 9.79282 9.13626 9.95033V10.8434C9.13626 11.0287 9.30075 11.1789 9.50372 11.1789C9.70668 11.1789 9.87118 11.0287 9.87118 10.8434V10.2163C9.87118 10.0589 10.0116 9.93076 10.184 9.93076C10.3565 9.93076 10.4968 10.0589 10.4968 10.2163V11.0777C10.4968 11.2629 10.6613 11.4131 10.8643 11.4131C11.0672 11.4131 11.2317 11.2629 11.2317 11.0777V10.5327C11.2317 10.3752 11.3721 10.2471 11.5445 10.2471C11.7171 10.2471 11.8574 10.3752 11.8574 10.5327L11.857 12.7993C11.8569 13.8246 11.5486 14.8211 10.9637 15.6928H7.1871Z" fill="#457EFF" stroke="#457EFF" stroke-width="0.15"/>
</svg>
