<svg width="12" height="10" viewBox="0 0 12 10" fill="none" xmlns="http://www.w3.org/2000/svg">
<path d="M9.82642 0.878418C10.931 0.878418 11.8264 1.77385 11.8264 2.87842V7.87842C11.8264 8.98299 10.931 9.87842 9.82642 9.87842H2.17383C1.06926 9.87842 0.173828 8.98299 0.173828 7.87842V2.87842C0.173828 1.77385 1.06926 0.878418 2.17383 0.878418H9.82642ZM10.8258 4.37842H1.17283L1.17383 7.87842C1.17383 8.39125 1.55987 8.81392 2.05721 8.87169L2.17383 8.87842H9.82642C10.3393 8.87842 10.7619 8.49238 10.8197 7.99504L10.8264 7.87842L10.8258 4.37842ZM9.82642 1.87842H2.17383C1.66099 1.87842 1.23832 2.26446 1.18056 2.7618L1.17383 2.87842L1.17283 3.37842H10.8258L10.8264 2.87842C10.8264 2.36558 10.4404 1.94291 9.94304 1.88515L9.82642 1.87842Z" fill="#C1C7D5"/>
</svg>
