<svg width="286" height="37" viewBox="0 0 286 37" fill="none" xmlns="http://www.w3.org/2000/svg">
<path d="M286 0.378418H0V36.3784H286V0.378418Z" fill="white"/>
<path d="M0 36.0068H286" stroke="#E9EDF6" stroke-width="0.7"/>
<mask id="mask0_47_9608" style="mask-type:alpha" maskUnits="userSpaceOnUse" x="269" y="14" width="8" height="9">
<path d="M273.563 18.3784L276.883 21.6987C277.039 21.8542 277.039 22.1063 276.883 22.2618C276.808 22.3375 276.707 22.3785 276.602 22.3785C276.497 22.3785 276.396 22.3375 276.32 22.2618L273 18.9416L269.68 22.2618C269.604 22.3375 269.503 22.3785 269.398 22.3785C269.293 22.3785 269.192 22.3375 269.117 22.2618C268.961 22.1063 268.961 21.8542 269.117 21.6987L272.437 18.3784L269.117 15.0582C268.961 14.9027 268.961 14.6505 269.117 14.4951C269.272 14.3395 269.524 14.3395 269.68 14.495L273 17.8153L276.32 14.495C276.476 14.3395 276.728 14.3395 276.883 14.4951C277.039 14.6506 277.039 14.9027 276.883 15.0582L273.563 18.3784Z" fill="white"/>
</mask>
<g mask="url(#mask0_47_9608)">
<path d="M273.563 18.3784L276.883 21.6987C277.039 21.8542 277.039 22.1063 276.883 22.2618C276.808 22.3375 276.707 22.3785 276.602 22.3785C276.497 22.3785 276.396 22.3375 276.32 22.2618L273 18.9416L269.68 22.2618C269.604 22.3375 269.503 22.3785 269.398 22.3785C269.293 22.3785 269.192 22.3375 269.117 22.2618C268.961 22.1063 268.961 21.8542 269.117 21.6987L272.437 18.3784L269.117 15.0582C268.961 14.9027 268.961 14.6505 269.117 14.4951C269.272 14.3395 269.524 14.3395 269.68 14.495L273 17.8153L276.32 14.495C276.476 14.3395 276.728 14.3395 276.883 14.4951C277.039 14.6506 277.039 14.9027 276.883 15.0582L273.563 18.3784Z" fill="black"/>
<path d="M277.211 12.7783H268.4C267.848 12.7783 267.4 13.226 267.4 13.7783V22.9783C267.4 23.5306 267.848 23.9783 268.4 23.9783H277.211C277.763 23.9783 278.211 23.5306 278.211 22.9783V13.7783C278.211 13.226 277.763 12.7783 277.211 12.7783Z" fill="#3F4C5A"/>
</g>
<path d="M16.6514 27.0353C21.4295 27.0353 25.3029 23.1595 25.3029 18.3785C25.3029 13.5975 21.4295 9.72168 16.6514 9.72168C11.8734 9.72168 8 13.5975 8 18.3785C8 23.1595 11.8734 27.0353 16.6514 27.0353Z" fill="#457EFF"/>
<path fill-rule="evenodd" clip-rule="evenodd" d="M14.4806 13.4605C14.3495 14.1558 13.6019 18.0723 13.4483 18.8709C13.2947 19.6695 13.953 20.3854 14.5993 20.3854C15.2455 20.3854 15.331 20.3854 15.5962 20.3854C15.8615 20.3854 16.2564 20.5718 16.1078 21.2508C15.9591 21.9298 15.8054 22.6284 15.6543 23.2881C15.5032 23.9479 16.2604 24.214 16.5888 23.6996C16.9171 23.1852 19.3685 19.2594 19.6506 18.7314C19.9326 18.2034 19.4706 17.387 18.7751 17.387C18.0796 17.387 17.7918 17.387 17.427 17.387C17.0622 17.387 17.011 17.1264 17.1434 16.5895C17.2758 16.0526 17.435 15.3504 17.6812 14.3212C17.9273 13.292 16.9353 12.7329 16.4126 12.7329C15.8899 12.7329 15.3279 12.7329 15.173 12.7329C15.018 12.7329 14.6118 12.7653 14.4806 13.4605Z" fill="white"/>
<path d="M34.2142 20.0758H30.7082L31.6554 14.7115C31.772 14.051 31.3311 13.421 30.6706 13.3044C30.6009 13.2921 30.5302 13.2859 30.4594 13.2859L29.0684 21.2075H32.8741C33.537 21.2075 34.1032 20.7294 34.2142 20.0758ZM37.4963 21.3433C37.9713 21.3433 38.4143 21.2565 38.8252 21.083C39.2361 20.9095 39.5943 20.6681 39.8996 20.3587C40.205 20.0494 40.4444 19.6892 40.6178 19.278C40.7912 18.8668 40.8779 18.4198 40.8779 17.937C40.8779 17.4466 40.7723 17.0166 40.5612 16.6469C40.3501 16.2772 40.058 15.9868 39.6847 15.7755C39.3115 15.5643 38.8761 15.4587 38.3785 15.4587C37.911 15.4587 37.4737 15.5436 37.0666 15.7133C36.6594 15.8831 36.3032 16.1226 35.9978 16.4319C35.6925 16.7412 35.455 17.1015 35.2853 17.5126C35.1157 17.9238 35.0309 18.367 35.0309 18.8423C35.0309 19.3252 35.1345 19.7533 35.3419 20.1268C35.5492 20.5002 35.8376 20.7963 36.2071 21.0151C36.5765 21.2339 37.0063 21.3433 37.4963 21.3433ZM37.6886 20.0871C37.3644 20.0871 37.0873 19.974 36.8574 19.7477C36.6274 19.5213 36.5124 19.2007 36.5124 18.7857C36.5124 18.3934 36.5878 18.0407 36.7386 17.7276C36.8894 17.4146 37.0949 17.1675 37.355 16.9864C37.6151 16.8053 37.9035 16.7148 38.2202 16.7148C38.5444 16.7148 38.8214 16.828 39.0514 17.0543C39.2814 17.2806 39.3964 17.6013 39.3964 18.0162C39.3964 18.4085 39.321 18.7612 39.1702 19.0743C39.0194 19.3874 38.8158 19.6345 38.5594 19.8156C38.3031 19.9966 38.0128 20.0871 37.6886 20.0871ZM44.16 21.3433C44.6426 21.3433 45.0931 21.2528 45.5115 21.0717C45.93 20.8906 46.2938 20.6379 46.6029 20.3135C46.912 19.9891 47.1458 19.6081 47.3041 19.1705C46.5411 19.1093 46.057 19.1658 45.8518 19.3401C45.5441 19.6014 45.4889 19.7043 45.2288 19.8665C44.9687 20.0287 44.6841 20.1098 44.3749 20.1098C44.0281 20.1098 43.7454 19.991 43.5267 19.7533C43.3081 19.5157 43.1987 19.1969 43.1987 18.7971C43.1987 18.3972 43.2779 18.0389 43.4362 17.722C43.5946 17.4051 43.8095 17.1543 44.0809 16.9694C44.3523 16.7846 44.6501 16.6922 44.9743 16.6922C45.2835 16.6922 45.5239 16.7623 45.7275 16.9245C45.9311 17.0867 45.9465 17.1904 46.156 17.4562C46.2957 17.6334 46.7688 17.6918 47.5755 17.6315C47.5755 16.9525 47.3588 16.4206 46.9252 16.0358C46.4917 15.6511 45.913 15.4587 45.1892 15.4587C44.6916 15.4587 44.2317 15.5473 43.8095 15.7246C43.3872 15.9019 43.0178 16.149 42.7011 16.4659C42.3844 16.7827 42.1394 17.1524 41.966 17.5749C41.7926 17.9974 41.7059 18.45 41.7059 18.9329C41.7059 19.4157 41.8058 19.8382 42.0056 20.2003C42.2054 20.5624 42.49 20.8435 42.8594 21.0434C43.2289 21.2433 43.6624 21.3433 44.16 21.3433ZM50.7672 21.3433C51.2422 21.3433 51.6852 21.2565 52.0961 21.083C52.507 20.9095 52.8651 20.6681 53.1705 20.3587C53.4758 20.0494 53.7152 19.6892 53.8886 19.278C54.062 18.8668 54.1488 18.4198 54.1488 17.937C54.1488 17.4466 54.0432 17.0166 53.8321 16.6469C53.621 16.2772 53.3288 15.9868 52.9556 15.7755C52.5824 15.5643 52.147 15.4587 51.6493 15.4587C51.1819 15.4587 50.7446 15.5436 50.3374 15.7133C49.9303 15.8831 49.574 16.1226 49.2687 16.4319C48.9633 16.7412 48.7258 17.1015 48.5562 17.5126C48.3865 17.9238 48.3017 18.367 48.3017 18.8423C48.3017 19.3252 48.4054 19.7533 48.6127 20.1268C48.8201 20.5002 49.1085 20.7963 49.4779 21.0151C49.8474 21.2339 50.2771 21.3433 50.7672 21.3433ZM50.9595 20.0871C50.6353 20.0871 50.3582 19.974 50.1282 19.7477C49.8982 19.5213 49.7833 19.2007 49.7833 18.7857C49.7833 18.3934 49.8587 18.0407 50.0095 17.7276C50.1603 17.4146 50.3657 17.1675 50.6258 16.9864C50.8859 16.8053 51.1743 16.7148 51.491 16.7148C51.8152 16.7148 52.0923 16.828 52.3223 17.0543C52.5522 17.2806 52.6672 17.6013 52.6672 18.0162C52.6672 18.4085 52.5918 18.7612 52.441 19.0743C52.2902 19.3874 52.0866 19.6345 51.8303 19.8156C51.5739 19.9966 51.2837 20.0871 50.9595 20.0871ZM56.6848 19.7815L57.2047 16.8053H58.4148L58.6297 15.5945H57.4196L57.5327 14.9381C57.5779 14.7042 57.6627 14.5383 57.7871 14.4402C57.9116 14.3421 58.0982 14.2931 58.347 14.2931C58.5697 14.2931 58.7607 14.134 58.8009 13.9149L58.9577 13.0596H58.347C57.7513 13.0596 57.2556 13.2029 56.8598 13.4896C56.4639 13.7763 56.2057 14.2591 56.0851 14.9381L55.972 15.5945H55.2029L54.988 16.8053H55.7571L54.988 21.2075C55.825 21.2075 56.5408 20.6059 56.6848 19.7815ZM61.198 22.3977L65.3952 15.5945C64.442 15.5945 63.5599 16.0983 63.0756 16.9193L61.5273 19.544L60.9686 17.1048C60.7661 16.221 59.9798 15.5945 59.0732 15.5945L60.4344 21.2023L58.8696 23.6971C59.8186 23.6971 60.6998 23.2054 61.198 22.3977Z" fill="#457EFF"/>
</svg>
