<svg width="12" height="17" viewBox="0 0 12 17" fill="none" xmlns="http://www.w3.org/2000/svg">
<path fill-rule="evenodd" clip-rule="evenodd" d="M10.2476 10.1041C10.4878 10.2404 10.65 10.4611 10.7181 10.7078C10.7862 10.9545 10.7603 11.2271 10.624 11.4673C10.5228 11.6458 10.3692 11.7887 10.184 11.8769L6.64446 13.5615C6.23662 13.7557 5.76302 13.7557 5.35518 13.5615L1.81568 11.8769C1.56634 11.7582 1.3887 11.5497 1.30307 11.3085C1.21745 11.0674 1.22382 10.7935 1.3425 10.5442C1.43065 10.359 1.57364 10.2053 1.75207 10.1041L5.25976 8.11452C5.71878 7.85415 6.28086 7.85415 6.73988 8.11452L10.2476 10.1041Z" fill="#F3F4F7" stroke="#C1C7D5"/>
<path fill-rule="evenodd" clip-rule="evenodd" d="M10.2476 7.65931C10.4878 7.79555 10.65 8.01625 10.7181 8.26294C10.7862 8.50963 10.7603 8.78231 10.624 9.0225C10.5228 9.20093 10.3692 9.34391 10.184 9.43207L6.64446 11.1167C6.23662 11.3108 5.76302 11.3108 5.35518 11.1167L1.81568 9.43207C1.56634 9.31339 1.3887 9.10489 1.30307 8.86372C1.21745 8.62254 1.22382 8.34871 1.3425 8.09936C1.43065 7.91414 1.57364 7.76051 1.75207 7.65931L5.25976 5.66969C5.71878 5.40933 6.28086 5.40933 6.73988 5.66969L10.2476 7.65931Z" fill="#F3F4F7" stroke="#C1C7D5"/>
<path fill-rule="evenodd" clip-rule="evenodd" d="M10.2476 5.21449C10.4878 5.35073 10.65 5.57143 10.7181 5.81812C10.7862 6.0648 10.7603 6.33748 10.624 6.57768C10.5228 6.7561 10.3692 6.89909 10.184 6.98724L6.64447 8.6719C6.23662 8.86601 5.76302 8.86601 5.35518 8.6719L1.81568 6.98724C1.56634 6.86857 1.3887 6.66006 1.30307 6.41889C1.21745 6.17772 1.22382 5.90388 1.3425 5.65454C1.43065 5.46932 1.57364 5.31569 1.75207 5.21448L5.25976 3.22487C5.71878 2.96451 6.28086 2.96451 6.73988 3.22487L10.2476 5.21449Z" fill="#F3F4F7" stroke="#C1C7D5"/>
</svg>
