<svg width="17" height="15" viewBox="0 0 17 15" fill="none" xmlns="http://www.w3.org/2000/svg">
<path d="M1.5127 7.45346C2.40043 7.24206 3.29431 7.29035 4.19434 7.59833C5.09438 7.90631 5.82281 8.33554 6.37966 8.88604C7.05036 7.29607 7.96175 6.04517 9.11384 5.13337C10.2659 4.22156 11.6125 3.81229 13.1535 3.90556" stroke="#457EFF" stroke-linecap="round" stroke-linejoin="round"/>
<path d="M7.4878 13.9709C7.4878 11.7168 8.54441 8.97377 9.47966 7.90683C10.4742 6.77222 11.5188 6.33049 13.0234 6.32227M1.55713 9.89066C2.14361 9.67703 3.12735 9.75059 3.86651 10.0901C4.98265 10.6028 5.80857 11.7962 6.2968 12.9875L1.55713 9.89066Z" stroke="#457EFF" stroke-linecap="round"/>
<path d="M13.496 6.66869C14.9352 6.76933 16.1836 5.68416 16.2842 4.2449C16.3849 2.80563 15.2997 1.55729 13.8604 1.45664C12.4212 1.356 11.1728 2.44117 11.0722 3.88044C10.9715 5.3197 12.0567 6.56804 13.496 6.66869Z" fill="#EAF5FE" stroke="#457EFF"/>
</svg>
