<svg width="12" height="13" viewBox="0 0 12 13" fill="none" xmlns="http://www.w3.org/2000/svg">
<path d="M6 12.3784C9.31371 12.3784 12 9.69213 12 6.37842C12 3.06471 9.31371 0.378418 6 0.378418C2.68629 0.378418 0 3.06471 0 6.37842C0 9.69213 2.68629 12.3784 6 12.3784Z" fill="#F2F4F9"/>
<g opacity="0.342332">
<path d="M3.64419 5.01376C3.81508 4.85336 4.08036 4.83553 4.27222 4.96029L4.3404 5.01376L5.99889 6.57146L7.6596 5.01376C7.83049 4.85336 8.09576 4.83553 8.28763 4.96029L8.35581 5.01376C8.5267 5.17416 8.54569 5.42315 8.41277 5.60323L8.35581 5.66723L6 7.87842L3.64419 5.66723C3.45194 5.48678 3.45194 5.19421 3.64419 5.01376Z" fill="#A1A9BB"/>
</g>
</svg>
