<svg width="17" height="17" viewBox="0 0 17 17" fill="none" xmlns="http://www.w3.org/2000/svg">
<path d="M12.893 1.40918H4.41406C2.75721 1.40918 1.41406 2.75233 1.41406 4.40918V12.8191C1.41406 14.476 2.75721 15.8191 4.41406 15.8191H12.893C14.5498 15.8191 15.893 14.476 15.893 12.8191V4.40918C15.893 2.75233 14.5498 1.40918 12.893 1.40918Z" fill="#F3F7FF" stroke="#D4DBED"/>
<path d="M1.55322 10.4657L6.76215 5.19189L11.0434 9.62246" stroke="#D4DBED" stroke-linecap="round" stroke-linejoin="round"/>
<path d="M13.501 5.20752C14.0533 5.20752 14.501 4.7598 14.501 4.20752C14.501 3.65523 14.0533 3.20752 13.501 3.20752C12.9487 3.20752 12.501 3.65523 12.501 4.20752C12.501 4.7598 12.9487 5.20752 13.501 5.20752Z" fill="#D4DBED"/>
<path d="M9.80371 8.10726L11.586 6.34961L15.8768 10.5447" stroke="#D4DBED" stroke-linecap="round" stroke-linejoin="round"/>
</svg>
