<svg width="16" height="16" viewBox="0 0 16 16" fill="none" xmlns="http://www.w3.org/2000/svg">
<path fill-rule="evenodd" clip-rule="evenodd" d="M9.6702 1.28076C10.4012 1.28076 11.0956 1.60071 11.5706 2.15638L14.1704 5.19798C14.5574 5.65072 14.7701 6.22676 14.7701 6.82236V12.9883C14.7701 13.6787 14.4903 14.3037 14.0379 14.7561C13.5854 15.2085 12.9604 15.4883 12.2701 15.4883H3.0625C2.37214 15.4883 1.74714 15.2085 1.29473 14.7561C0.842322 14.3037 0.5625 13.6787 0.5625 12.9883V3.78076C0.5625 3.09041 0.842322 2.46541 1.29473 2.01299C1.74714 1.56058 2.37214 1.28076 3.0625 1.28076H9.6702Z" fill="#EAF5FE" stroke="#457EFF"/>
<path d="M4.52148 7.89644L7.66646 4.75146L10.8114 7.89644" stroke="#457EFF" stroke-linecap="round"/>
<path d="M7.6665 5.18457V12.1662" stroke="#457EFF" stroke-linecap="round"/>
</svg>
