<svg width="16" height="16" viewBox="0 0 16 16" fill="none" xmlns="http://www.w3.org/2000/svg">
<path d="M13.4141 5.35547H3.43408C2.32951 5.35547 1.43408 6.2509 1.43408 7.35547V13.3521C1.43408 14.4566 2.32951 15.3521 3.43408 15.3521H13.4141C14.5187 15.3521 15.4141 14.4566 15.4141 13.3521V7.35547C15.4141 6.2509 14.5187 5.35547 13.4141 5.35547Z" fill="#EAF5FE" stroke="#457EFF"/>
<path d="M1.3999 2.62012H12.9128" stroke="#457EFF" stroke-linecap="round"/>
<path d="M13.6786 4.85531C14.9131 4.85531 15.9139 3.85454 15.9139 2.62004C15.9139 1.38553 14.9131 0.384766 13.6786 0.384766C12.4441 0.384766 11.4434 1.38553 11.4434 2.62004C11.4434 3.85454 12.4441 4.85531 13.6786 4.85531Z" fill="white"/>
<path d="M14.4882 4.2367L15.0289 3.84139L14.2831 2.84941L15.4392 2.52123L15.2378 1.8798L14.1302 2.30866L14.1861 1.00342H13.5186L13.5745 2.28629L12.4483 1.84996L12.2432 2.48021L13.3806 2.80839L12.6086 3.82275L13.1531 4.20313L13.8169 3.16267L14.4882 4.2367Z" fill="#457EFF"/>
</svg>
