<svg width="12" height="13" viewBox="0 0 12 13" fill="none" xmlns="http://www.w3.org/2000/svg">
<path d="M6 12.6909C9.31371 12.6909 12 10.0046 12 6.69092C12 3.37721 9.31371 0.690918 6 0.690918C2.68629 0.690918 0 3.37721 0 6.69092C0 10.0046 2.68629 12.6909 6 12.6909Z" fill="#E5ECFB"/>
<path d="M3.64419 8.05558C3.81508 8.21598 4.08036 8.2338 4.27222 8.10905L4.3404 8.05558L5.99889 6.49788L7.6596 8.05558C7.83049 8.21598 8.09576 8.2338 8.28763 8.10905L8.35581 8.05558C8.5267 7.89518 8.54569 7.64619 8.41277 7.4661L8.35581 7.40211L6 5.19092L3.64419 7.40211C3.45194 7.58256 3.45194 7.87513 3.64419 8.05558Z" fill="#457EFF"/>
</svg>
