<svg width="18" height="17" viewBox="0 0 18 17" fill="none" xmlns="http://www.w3.org/2000/svg">
<path fill-rule="evenodd" clip-rule="evenodd" d="M5.26333 10.9552H3.68547C2.4275 10.9552 1.40771 9.93544 1.40771 8.67747V3.36271C1.40771 2.10475 2.4275 1.08496 3.68547 1.08496H14.315C15.5729 1.08496 16.5927 2.10475 16.5927 3.36271V8.67747C16.5927 9.93544 15.5729 10.9552 14.315 10.9552H12.7865" fill="#EAF5FE"/>
<path d="M5.26333 10.9552H3.68547C2.4275 10.9552 1.40771 9.93544 1.40771 8.67747V3.36271C1.40771 2.10475 2.4275 1.08496 3.68547 1.08496H14.315C15.5729 1.08496 16.5927 2.10475 16.5927 3.36271V8.67747C16.5927 9.93544 15.5729 10.9552 14.315 10.9552H12.7865" stroke="#457EFF"/>
<path fill-rule="evenodd" clip-rule="evenodd" d="M5.86449 13.0441L5.34375 11.0887L5.45973 10.767L6.28747 10.398L6.91218 10.8668L7.10186 11.0887C7.17131 10.2491 7.20604 9.77233 7.20604 9.65832C7.20604 9.54431 7.17131 9.02606 7.10186 8.10355L7.20604 7.13706L7.53434 6.95932L8.29639 6.83545L8.57664 7.46337V8.66432C8.57664 9.13647 8.57664 9.37255 8.57664 9.37255C8.57664 9.37255 8.75294 9.31901 9.10553 9.21193L10.0078 9.37255L10.2276 9.65832L10.9081 9.37255L11.2982 9.50642L11.6496 9.84845L12.2649 9.9398H12.5529C12.6345 9.99928 12.6754 10.152 12.6754 10.398C12.6754 10.644 12.6754 10.9536 12.6754 11.3268C12.5937 11.6316 12.5529 11.8613 12.5529 12.0158C12.5529 12.1704 12.5529 12.3379 12.5529 12.5184L5.86449 13.0441Z" fill="white"/>
<path d="M11.9523 9.33944C11.7759 9.33944 11.6097 9.37936 11.4638 9.44986C11.2757 9.19268 10.9551 9.02303 10.5917 9.02303C10.4041 9.02303 10.2278 9.06828 10.0753 9.14751C9.88435 8.91086 9.57708 8.75702 9.23115 8.75702C9.12226 8.75702 9.01719 8.77222 8.91834 8.80053C8.91834 8.60914 8.91834 8.40753 8.91834 8.19572C8.91834 7.878 9.08674 6.52686 7.77824 6.52686C6.76543 6.52686 6.82296 7.37675 6.82296 8.31929C6.82296 8.94765 6.82296 9.70123 6.82296 10.58C6.76612 10.528 6.70229 10.4817 6.63224 10.4419C6.4065 10.3139 6.14182 10.2694 5.8823 10.315C5.60317 10.3252 5.35274 10.4364 5.19006 10.6236C5.01916 10.8203 4.95983 11.0839 5.0271 11.347L5.51006 13.2337C5.78546 14.8078 7.13051 15.9855 7.18783 16.035C7.25606 16.094 7.34649 16.1269 7.44046 16.1269H11.5734C11.6971 16.1269 11.8125 16.07 11.8805 15.9756C12.6124 14.9591 12.9995 13.7789 12.9996 12.5625L13 10.2959C13 9.76846 12.53 9.33944 11.9523 9.33944ZM7.59481 15.4559C7.29865 15.1684 6.42593 14.2397 6.23388 13.1175C6.23244 13.1092 6.23072 13.101 6.22861 13.093L5.74269 11.1944C5.72651 11.131 5.73465 11.0763 5.76575 11.0406C5.79675 11.0048 5.84996 10.9862 5.92096 10.9799C5.95665 10.9769 5.97149 10.973 6.0046 10.9712C6.08794 10.9666 6.1734 10.9716 6.2444 11.0118C6.31541 11.0521 6.36488 11.1152 6.38392 11.1894L6.80305 12.8271C6.83808 12.9638 6.96267 13.0662 7.1152 13.0836L7.14468 13.087C7.24927 13.0989 7.35443 13.0693 7.43348 13.0056C7.51252 12.9419 7.55778 12.8503 7.55778 12.7541V7.42271C7.55778 7.2652 7.69807 7.13713 7.8706 7.13713C8.04304 7.13713 8.18342 7.2652 8.18342 7.42271V10.5684C8.18342 10.7536 8.34791 10.9039 8.55088 10.9039C8.75384 10.9039 8.91834 10.7536 8.91834 10.5684V9.71351C8.91834 9.556 9.05862 9.42794 9.23115 9.42794C9.40359 9.42794 9.54397 9.556 9.54397 9.71351V10.6066C9.54397 10.7919 9.70847 10.942 9.91143 10.942C10.1144 10.942 10.2789 10.7919 10.2789 10.6066V9.97952C10.2789 9.8221 10.4193 9.69394 10.5917 9.69394C10.7642 9.69394 10.9045 9.8221 10.9045 9.97952V10.8409C10.9045 11.0261 11.069 11.1763 11.272 11.1763C11.4749 11.1763 11.6394 11.0261 11.6394 10.8409V10.2959C11.6394 10.1384 11.7798 10.0103 11.9523 10.0103C12.1248 10.0103 12.2651 10.1384 12.2651 10.2958L12.2647 12.5624C12.2646 13.5878 11.9563 14.5843 11.3714 15.4559H7.59481Z" fill="#457EFF" stroke="#457EFF" stroke-width="0.15"/>
</svg>
