<svg width="16" height="16" viewBox="0 0 16 16" fill="none" xmlns="http://www.w3.org/2000/svg">
<path d="M0.750488 13.7902V7.81131C0.750488 4.1013 3.84685 1.09375 7.66641 1.09375C11.486 1.09375 14.5823 4.1013 14.5823 7.81131V13.7181" stroke="#D4DBED" stroke-linecap="round"/>
<path d="M3.95316 9.89626C3.95316 9.35246 3.51232 8.91162 2.96852 8.91162C2.42472 8.91162 1.98389 9.35246 1.98389 9.89626V14.3998C1.98389 14.9436 2.42472 15.3844 2.96852 15.3844C3.51232 15.3844 3.95316 14.9436 3.95316 14.3998V9.89626Z" fill="#F3F7FF" stroke="#D4DBED"/>
<path d="M13.3616 9.89562C13.3616 9.35217 12.921 8.91162 12.3776 8.91162C11.8341 8.91162 11.3936 9.35217 11.3936 9.89562V14.4004C11.3936 14.9439 11.8341 15.3844 12.3776 15.3844C12.921 15.3844 13.3616 14.9439 13.3616 14.4004V9.89562Z" fill="#F3F7FF" stroke="#D4DBED"/>
</svg>
