<svg width="16" height="11" viewBox="0 0 16 11" fill="none" xmlns="http://www.w3.org/2000/svg">
<path d="M11.8283 1.22314H3.50488C1.84803 1.22314 0.504883 2.56629 0.504883 4.22314V12.5466C0.504883 14.2035 1.84803 15.5466 3.50488 15.5466H11.8283C13.4852 15.5466 14.8283 14.2035 14.8283 12.5466V4.22314C14.8283 2.56629 13.4852 1.22314 11.8283 1.22314Z" fill="#EAF5FE" stroke="#457EFF"/>
<path d="M8.14437 10.5284C8.14437 9.85487 8.3061 9.33867 8.62956 8.97977L9.35401 8.26196C10.0718 7.50871 10.4307 6.74438 10.4307 5.96897C10.4307 5.1847 10.197 4.5677 9.72953 4.11796C9.26207 3.66823 8.60962 3.44336 7.77218 3.44336C6.96575 3.44336 6.31109 3.6638 5.80818 4.10467C5.30527 4.54555 5.04939 5.12489 5.04053 5.84269H6.2701C6.2701 5.43948 6.40746 5.11824 6.68218 4.87897C6.95689 4.6397 7.32023 4.52007 7.77218 4.52007C8.23742 4.52007 8.5919 4.65189 8.8356 4.91553C9.07929 5.17917 9.20114 5.54361 9.20114 6.00885C9.20114 6.49182 9.01505 6.94377 8.64285 7.36471L7.77218 8.26196C7.431 8.63416 7.20502 8.97312 7.09425 9.27886C6.98348 9.58459 6.92366 10.0011 6.9148 10.5284H8.14437ZM7.58608 13.3265C7.82535 13.3265 8.00702 13.2611 8.13108 13.1304C8.25515 12.9997 8.31718 12.8347 8.31718 12.6353C8.31718 12.4359 8.25515 12.2686 8.13108 12.1335C8.00702 11.9983 7.82535 11.9308 7.58608 11.9308C7.34681 11.9308 7.16625 11.9983 7.0444 12.1335C6.92255 12.2686 6.86163 12.4359 6.86163 12.6353C6.86163 12.8347 6.92255 12.9997 7.0444 13.1304C7.16625 13.2611 7.34681 13.3265 7.58608 13.3265Z" fill="#457EFF"/>
</svg>
