<svg width="16" height="15" viewBox="0 0 16 15" fill="none" xmlns="http://www.w3.org/2000/svg">
<path d="M13.6501 0.994141H2.50586C1.67743 0.994141 1.00586 1.66571 1.00586 2.49414V6.67921C1.00586 7.50763 1.67743 8.17921 2.50586 8.17921H13.6501C14.4785 8.17921 15.1501 7.50763 15.1501 6.67921V2.49414C15.1501 1.66571 14.4785 0.994141 13.6501 0.994141Z" fill="#EAF5FE" stroke="#457EFF"/>
<path d="M5.0996 10.0205H2.50586C1.67743 10.0205 1.00586 10.6921 1.00586 11.5205V12.2479C1.00586 13.0763 1.67743 13.7479 2.50586 13.7479H5.0996C5.92802 13.7479 6.5996 13.0763 6.5996 12.2479V11.5205C6.5996 10.6921 5.92802 10.0205 5.0996 10.0205Z" fill="#EAF5FE" stroke="#457EFF"/>
<path d="M13.6503 10.2261H10.0781C9.2497 10.2261 8.57812 10.8976 8.57812 11.7261V12.0426C8.57812 12.871 9.2497 13.5426 10.0781 13.5426H13.6503C14.4787 13.5426 15.1503 12.871 15.1503 12.0426V11.7261C15.1503 10.8976 14.4787 10.2261 13.6503 10.2261Z" fill="#457EFF" stroke="#457EFF"/>
</svg>
