<svg width="16" height="10" viewBox="0 0 16 10" fill="none" xmlns="http://www.w3.org/2000/svg">
<path fill-rule="evenodd" clip-rule="evenodd" d="M7.99993 1.2915C9.71488 1.2915 11.4353 1.44019 13.161 1.73734C13.7608 1.84099 14.2797 2.15307 14.6485 2.5914C15.0173 3.02969 15.2361 3.59423 15.2357 4.2032V10.9426C15.2361 11.5802 14.9966 12.1669 14.5985 12.6117C14.2004 13.0565 13.6438 13.3594 13.0104 13.4294C11.391 13.6072 9.74869 13.6961 8.0834 13.6961C6.38714 13.6961 4.69087 13.6039 2.99448 13.4195C2.36043 13.3507 1.80311 13.0488 1.40417 12.6046C1.00523 12.1604 0.764675 11.5739 0.764161 10.9365L0.764161 4.20286C0.763742 3.59423 0.982528 3.02969 1.35135 2.5914C1.72019 2.15307 2.23909 1.84099 2.83857 1.73739C4.56452 1.44019 6.28497 1.2915 7.99993 1.2915Z" fill="#F3F7FF" stroke="#D4DBED"/>
<path fill-rule="evenodd" clip-rule="evenodd" d="M10.6914 7.70329L6.93928 10.3862L6.86929 5.3999L10.6914 7.70329Z" stroke="#D4DBED"/>
</svg>
