<svg width="16" height="17" viewBox="0 0 16 17" fill="none" xmlns="http://www.w3.org/2000/svg">
<path d="M11.5022 12.2162C13.6183 10.1002 13.6183 6.66936 11.5022 4.5533C9.38614 2.43724 5.95533 2.43724 3.83928 4.5533C1.72322 6.66936 1.72322 10.1002 3.83928 12.2162C5.95533 14.3323 9.38614 14.3323 11.5022 12.2162Z" fill="#EAF5FE"/>
<path d="M4.54722 7.28521C5.63962 6.19282 7.40752 6.18276 8.57617 7.22271L8.70828 7.34736C8.88513 7.52421 8.88513 7.80634 8.71112 7.98035C8.55644 8.13503 8.31634 8.15221 8.14268 8.03191L8.08097 7.98035C7.29494 7.19432 6.07579 7.13776 5.28703 7.8138L5.17737 7.91536L1.7972 11.2955C1.01587 12.0769 1.03873 13.3757 1.85935 14.1963C2.64266 14.9796 3.86169 15.036 4.65045 14.36L4.76011 14.2584L7.69677 11.3218C7.87078 11.1478 8.15291 11.1478 8.32692 11.3218C8.4816 11.4765 8.49878 11.7166 8.37848 11.8902L8.32692 11.9519L5.39025 14.8886C4.25584 16.023 2.39297 15.9902 1.2292 14.8264C0.10853 13.7058 0.0366177 11.9368 1.0458 10.7944L1.16705 10.6654L4.54722 7.28521Z" fill="#457EFF" stroke="#457EFF" stroke-width="0.3"/>
<path d="M9.95115 1.88092C11.0856 0.746505 12.9484 0.779294 14.1122 1.94307C15.2329 3.06374 15.3048 4.83268 14.2956 5.97515L14.1744 6.10412L10.7942 9.48429C9.70178 10.5767 7.93389 10.5867 6.76524 9.5468L6.63312 9.42214L6.56166 9.35068C6.38765 9.17667 6.38765 8.89455 6.56166 8.72053C6.71634 8.56586 6.95644 8.54867 7.1301 8.66898L7.19181 8.72053L7.26327 8.792C8.04659 9.57532 9.26562 9.63175 10.0544 8.95571L10.164 8.85415L13.5442 5.47397C14.3255 4.69264 14.3027 3.39383 13.4821 2.57321C12.6987 1.78989 11.4797 1.73346 10.691 2.4095L10.5813 2.51106L7.64918 5.44318C7.47517 5.61719 7.19304 5.61719 7.01903 5.44318C6.86436 5.2885 6.84717 5.0484 6.96747 4.87474L7.01903 4.81303L9.95115 1.88092Z" fill="#457EFF" stroke="#457EFF" stroke-width="0.3"/>
</svg>
