<svg width="16" height="16" viewBox="0 0 16 16" fill="none" xmlns="http://www.w3.org/2000/svg">
<path d="M12.1087 1.27783H3.89502C2.23817 1.27783 0.89502 2.62098 0.89502 4.27783V12.4915C0.89502 14.1484 2.23817 15.4915 3.89502 15.4915H12.1087C13.7656 15.4915 15.1087 14.1484 15.1087 12.4915V4.27783C15.1087 2.62098 13.7656 1.27783 12.1087 1.27783Z" fill="#EAF5FE" stroke="#457EFF"/>
<path d="M9.32643 12.1879V11.7719L8.643 11.7223L8.47462 11.5787V5.84882H10.0247L10.1683 6.00235L10.307 6.9433H10.8666V5.3833H5.13672V6.9433H5.69138L5.835 6.00235L5.97862 5.84882H7.52872V11.5787L7.35538 11.7223L6.67691 11.7719V12.1879H9.32643Z" fill="#457EFF"/>
</svg>
