<svg width="12" height="13" viewBox="0 0 12 13" fill="none" xmlns="http://www.w3.org/2000/svg">
<path fill-rule="evenodd" clip-rule="evenodd" d="M2.25 2.71533C2.25 2.50823 2.41789 2.34033 2.625 2.34033H9.375C9.58211 2.34033 9.75 2.50823 9.75 2.71533V5.71533C9.75 5.92244 9.58211 6.09033 9.375 6.09033H2.625C2.41789 6.09033 2.25 5.92244 2.25 5.71533V2.71533ZM3.375 3.84033C3.375 3.63323 3.54289 3.46533 3.75 3.46533H8.25C8.45711 3.46533 8.625 3.63323 8.625 3.84033V4.59033C8.625 4.79744 8.45711 4.96533 8.25 4.96533H3.75C3.54289 4.96533 3.375 4.79744 3.375 4.59033V3.84033Z" fill="#96A2BE"/>
<path fill-rule="evenodd" clip-rule="evenodd" d="M2.25 7.96533C2.25 7.75823 2.41789 7.59033 2.625 7.59033H9.375C9.58211 7.59033 9.75 7.75823 9.75 7.96533V10.9653C9.75 11.1724 9.58211 11.3403 9.375 11.3403H2.625C2.41789 11.3403 2.25 11.1724 2.25 10.9653V7.96533ZM3.375 9.09033C3.375 8.88323 3.54289 8.71533 3.75 8.71533H8.25C8.45711 8.71533 8.625 8.88323 8.625 9.09033V9.84033C8.625 10.0474 8.45711 10.2153 8.25 10.2153H3.75C3.54289 10.2153 3.375 10.0474 3.375 9.84033V9.09033Z" fill="#96A2BE"/>
</svg>
