<svg width="12" height="18" viewBox="0 0 12 18" fill="none" xmlns="http://www.w3.org/2000/svg">
<path fill-rule="evenodd" clip-rule="evenodd" d="M5.80382 0.742188C9.00837 0.742188 11.6062 3.33999 11.6062 6.54454C11.6062 8.6142 10.5226 10.4308 8.89178 11.4579L8.44467 13.5019C8.3444 13.9612 7.93777 14.2886 7.46768 14.2886H4.13996C3.66987 14.2886 3.26325 13.9612 3.16298 13.5019L2.71687 11.4585C1.0855 10.4315 0.00146484 8.61462 0.00146484 6.54454C0.00146484 3.33999 2.59927 0.742188 5.80382 0.742188Z" fill="#457EFF"/>
<path fill-rule="evenodd" clip-rule="evenodd" d="M4.39545 4.25382C4.30749 4.71984 3.80612 7.3449 3.70311 7.88019C3.6001 8.41548 4.04158 8.89529 4.47503 8.89529C4.90847 8.89529 4.96576 8.89529 5.14367 8.89529C5.32158 8.89529 5.58644 9.02026 5.48674 9.47539C5.38704 9.93051 5.28395 10.3987 5.18261 10.8409C5.08128 11.2832 5.58914 11.4615 5.80934 11.1167C6.02954 10.772 7.67364 8.14059 7.86283 7.78671C8.05203 7.43283 7.74213 6.88559 7.27567 6.88559C6.80922 6.88559 6.6162 6.88559 6.37152 6.88559C6.12685 6.88559 6.09251 6.71091 6.18131 6.35106C6.27011 5.99121 6.37689 5.5205 6.54199 4.83066C6.7071 4.14082 6.04177 3.76611 5.69121 3.76611C5.34064 3.76611 4.96371 3.76611 4.85978 3.76611C4.75586 3.76611 4.48341 3.7878 4.39545 4.25382Z" fill="white"/>
<path d="M7.2971 14.7808H4.30526C3.96435 14.7808 3.68799 15.0571 3.68799 15.398C3.68799 15.7389 3.96435 16.0153 4.30526 16.0153H7.2971C7.63801 16.0153 7.91437 15.7389 7.91437 15.398C7.91437 15.0571 7.63801 14.7808 7.2971 14.7808Z" fill="#A3B5C9"/>
<path d="M7.0467 16.5078H4.56063C4.21972 16.5078 3.94336 16.7842 3.94336 17.1251C3.94336 17.466 4.21972 17.7424 4.56063 17.7424H7.0467C7.38761 17.7424 7.66397 17.466 7.66397 17.1251C7.66397 16.7842 7.38761 16.5078 7.0467 16.5078Z" fill="#A3B5C9"/>
</svg>
